<svg viewBox="0 0 500 130" xmlns="http://www.w3.org/2000/svg">
    <polygon points="10 10, 100 100, 10 100" fill="#4285f4"/>
    <polygon points="130 130, 50 50, 130 50" fill="#fbbc04"/>

<!--    <path d="M 200 150 H 510 Z" fill="transparent" stroke="black" stroke-dasharray="2,2"/>-->
<!--    <path d="M 300 195 V 130 Z" fill="transparent" stroke="black" stroke-dasharray="2,2"/>-->

<!--    <ellipse rx="40" ry="30" cx="550" cy="250" fill="#34a853"/>-->

<!--    <polygon points="180 180, 210 180, 210 250, 180 250" fill="red"/>-->

<!--    <circle cx="45" cy="280" r="1" stroke="gray" stroke-width="1" fill="gray"/>-->
<!--    <circle cx="50" cy="280" r="1" stroke="gray" stroke-width="1" fill="gray"/>-->
<!--    <circle cx="55" cy="280" r="1" stroke="gray" stroke-width="1" fill="gray"/>-->
<!--    <circle cx="55" cy="285" r="1" stroke="gray" stroke-width="1" fill="gray"/>-->
<!--    <circle cx="50" cy="285" r="1" stroke="gray" stroke-width="1" fill="gray"/>-->
<!--    <circle cx="55" cy="290" r="1" stroke="gray" stroke-width="1" fill="gray"/>-->
<!--    <circle cx="60" cy="290" r="1" stroke="gray" stroke-width="1" fill="gray"/>-->
<!--    <circle cx="60" cy="285" r="1" stroke="gray" stroke-width="1" fill="gray"/>-->
<!--    <circle cx="60" cy="280" r="1" stroke="gray" stroke-width="1" fill="gray"/>-->
<!--    <circle cx="60" cy="295" r="1" stroke="gray" stroke-width="1" fill="gray"/>-->

    <circle cx="280" cy="40" r="1" stroke="gray" stroke-width="1" fill="gray"/>
    <circle cx="285" cy="45" r="1" stroke="gray" stroke-width="1" fill="gray"/>
    <circle cx="290" cy="50" r="1" stroke="gray" stroke-width="1" fill="gray"/>
    <circle cx="285" cy="35" r="1" stroke="gray" stroke-width="1" fill="gray"/>
    <circle cx="290" cy="30" r="1" stroke="gray" stroke-width="1" fill="gray"/>
    <circle cx="295" cy="35" r="1" stroke="gray" stroke-width="1" fill="gray"/>
    <circle cx="300" cy="40" r="1" stroke="gray" stroke-width="1" fill="gray"/>
    <circle cx="295" cy="45" r="1" stroke="gray" stroke-width="1" fill="gray"/>
</svg>
