<svg viewBox="0 0 1200 300" xmlns="http://www.w3.org/2000/svg">
    <polygon points="0 0, 100 100, 0 100" fill="#4285f4"/>
    <polygon points="150 150, 50 50, 150 50" fill="#fbbc04"/>


    <path d="M 200 150 H 510 Z" fill="transparent" stroke="black" stroke-dasharray="2,2"/>
    <path d="M 300 195 V 130 Z" fill="transparent" stroke="black" stroke-dasharray="2,2"/>

    <ellipse rx="40" ry="30" cx="300" cy="250" fill="#34a853"/>

    <polygon points="180 180, 210 180, 210 250, 180 250" fill="red"/>

    <circle cx="45" cy="280" r="1" stroke="gray" stroke-width="1" fill="gray"/>
    <circle cx="50" cy="280" r="1" stroke="gray" stroke-width="1" fill="gray"/>
    <circle cx="55" cy="280" r="1" stroke="gray" stroke-width="1" fill="gray"/>
    <circle cx="55" cy="285" r="1" stroke="gray" stroke-width="1" fill="gray"/>
    <circle cx="50" cy="285" r="1" stroke="gray" stroke-width="1" fill="gray"/>
    <circle cx="55" cy="290" r="1" stroke="gray" stroke-width="1" fill="gray"/>
    <circle cx="60" cy="290" r="1" stroke="gray" stroke-width="1" fill="gray"/>
    <circle cx="60" cy="285" r="1" stroke="gray" stroke-width="1" fill="gray"/>
    <circle cx="60" cy="280" r="1" stroke="gray" stroke-width="1" fill="gray"/>
    <circle cx="60" cy="295" r="1" stroke="gray" stroke-width="1" fill="gray"/>

    <circle cx="250" cy="40" r="1" stroke="gray" stroke-width="1" fill="gray"/>
    <circle cx="255" cy="45" r="1" stroke="gray" stroke-width="1" fill="gray"/>
    <circle cx="260" cy="50" r="1" stroke="gray" stroke-width="1" fill="gray"/>
    <circle cx="255" cy="35" r="1" stroke="gray" stroke-width="1" fill="gray"/>
    <circle cx="260" cy="30" r="1" stroke="gray" stroke-width="1" fill="gray"/>
    <circle cx="265" cy="35" r="1" stroke="gray" stroke-width="1" fill="gray"/>
    <circle cx="270" cy="40" r="1" stroke="gray" stroke-width="1" fill="gray"/>
    <circle cx="265" cy="45" r="1" stroke="gray" stroke-width="1" fill="gray"/>
</svg>
