<?xml version="1.0" encoding="utf-8"?>

<!DOCTYPE svg PUBLIC "-//W3C//DTD SVG 1.1//EN" "http://www.w3.org/Graphics/SVG/1.1/DTD/svg11.dtd">
<svg version="1.1" id="Layer_1" xmlns="http://www.w3.org/2000/svg" xmlns:xlink="http://www.w3.org/1999/xlink" x="0px" y="0px"
	 viewBox="0 0 1686 1662.768" enable-background="new 0 0 1686 1662.768" xml:space="preserve">
<g>
	<g>
		<path d="M1561.672,1256.997c-1.265,2.417-2.523,4.822-3.794,7.252c-16.431-10.028-310.198-178.172-335.799-192.733
			c0.74-1.191,1.475-2.375,2.211-3.559C1228.622,1070.227,1513.477,1229.975,1561.672,1256.997z"/>
		<path d="M1527.729,1252.178c-1.294,2.17-2.589,4.339-3.89,6.521c-108.164-64.271-269.313-159.912-277.441-164.954
			c0.754-1.257,1.499-2.501,2.245-3.745C1248.643,1089.999,1458.262,1211.81,1527.729,1252.178z"/>
		<path d="M1527.389,1223.573c-1.097,2.198-2.185,4.401-3.364,6.57c-6.38-3.318-248.728-137.167-257.464-142.215
			c0.332-1.488,1.103-2.796,1.712-4.156C1282.582,1091.493,1489.103,1202.917,1527.389,1223.573z"/>
		<path d="M1501.338,1251.057c-1.221,2.097-2.382,4.216-3.667,6.288c-38.971-24.009-229.411-141.33-235.298-144.958
			c0.798-1.337,1.468-2.74,2.208-4.101C1274.289,1114.141,1500.41,1250.497,1501.338,1251.057z"/>
		<path d="M1520.593,1192.703c-1.074,2.136-2.148,4.272-3.227,6.419c-83.799-42.832-226.01-115.519-226.01-115.519
			c0.758-1.447,1.512-2.887,2.267-4.327C1471.873,1168.387,1467.812,1166.069,1520.593,1192.703z"/>
		<path d="M1458.581,1280.644c-1.456,1.94-2.92,3.89-4.385,5.84c-173.153-123.14-188.853-133.42-192.721-136.762
			c0.893-1.259,1.77-2.528,2.706-3.747C1266.834,1147.489,1256.748,1140.543,1458.581,1280.644z"/>
		<path d="M1500.71,1169.766c-1.743,3.798-1.098,2.435-2.971,6.287c-59.206-29.058-118.422-58.122-177.627-87.18
			c0.475-1.2,0.397-0.924,2.031-4.747C1381.576,1112.846,1441.112,1141.372,1500.71,1169.766z"/>
		<path d="M1455.416,1250.348c-1.246,1.978-2.511,3.943-3.793,5.912l-164.971-109.175c0.96-1.393,1.919-2.785,2.873-4.171
			C1344.819,1178.724,1400.122,1214.539,1455.416,1250.348z"/>
		<path d="M1486.423,1188.441c-1.131,2.017-2.257,4.023-3.388,6.039c-55.513-29.592-111.08-59.086-166.673-88.504l2.361-4.596
			C1374.617,1130.411,1430.466,1159.529,1486.423,1188.441z"/>
		<path d="M1510.513,1123.995l-2.651,6.472c-55.173-23.309-147.078-60.775-165.153-68.775c0.678-1.543,1.364-3.073,2.131-4.571
			C1400.072,1079.416,1455.292,1101.705,1510.513,1123.995z"/>
		<path d="M1427.07,1272.671c-1.293,1.846-2.63,3.66-3.951,5.501c-47.269-34.575-94.537-69.151-141.797-103.719
			c0.854-1.436,1.801-2.804,2.715-4.194C1285.7,1171.103,1420.08,1267.65,1427.07,1272.671z"/>
		<path d="M1408.724,1287.236c-1.365,1.83-2.73,3.659-4.102,5.498c-138.969-108.873-120.551-94.067-129.041-101.31
			c1.04-1.298,2.074-2.589,3.103-3.873C1286.005,1193.164,1373.608,1260.318,1408.724,1287.236z"/>
		<path d="M1485.472,1150.093l-2.877,6.161c-46.332-21.783-92.532-43.875-138.989-65.391c0.836-1.707,1.65-3.414,2.446-5.129
			C1359,1092.147,1435.872,1127.221,1485.472,1150.093z"/>
		<path d="M1513.516,1053.65l-1.924,6.401c-113.385-34.852-124.343-37.988-132.116-40.59c0.53-1.688,1.063-3.385,1.59-5.065
			C1425.209,1027.479,1469.363,1040.564,1513.516,1053.65z"/>
		<path d="M1480.84,1135.607c-0.968,2.066-1.94,4.141-2.912,6.217c-20.068-9.257-110.45-50.09-121.128-54.82
			c0.71-1.628,1.423-3.264,2.133-4.891C1370.863,1087.375,1471.598,1131.893,1480.84,1135.607z"/>
		<path d="M1432.073,1222.224c-1.165,1.827-2.336,3.664-3.507,5.501c-35.974-22.972-71.957-45.949-107.93-68.921
			c0.003-0.005,2.773-4.342,2.92-4.573C1359.725,1176.893,1395.894,1199.555,1432.073,1222.224z"/>
		<path d="M1394.207,1262.489c-1.277,1.745-2.572,3.506-3.887,5.237c-29.486-22.343-58.964-44.679-88.45-67.022
			c1.114-1.452,2.209-2.906,3.29-4.371C1334.84,1218.383,1364.528,1240.439,1394.207,1262.489z"/>
		<path d="M1412.282,1235.402c-1.197,1.784-2.38,3.565-3.614,5.337l-90.159-61.667c1.119-1.49,2.226-2.965,3.334-4.442
			C1351.877,1195.045,1382.155,1215.11,1412.282,1235.402z"/>
		<path d="M1320.756,1341.96c-1.528,1.466-3.072,2.947-4.617,4.429c-24.098-25.252-48.396-50.325-72.439-75.629
			c1.318-1.217,2.635-2.434,3.946-3.644C1272.014,1292.061,1296.389,1317.014,1320.756,1341.96z"/>
		<path d="M1505.9,1006.631c-0.507,2.023-1.016,4.057-1.526,6.091c-32.267-7.506-64.435-15.38-96.693-22.924
			c0.395-1.778,0.787-3.547,1.18-5.316C1416.018,985.955,1489.963,1002.919,1505.9,1006.631z"/>
		<path d="M1488.156,1057.232c-0.705,2.024-1.417,4.07-2.125,6.105c-28.966-9.362-57.952-18.73-86.928-28.096
			c0.468-1.796,0.999-3.57,1.507-5.342C1429.765,1039.091,1458.867,1048.487,1488.156,1057.232z"/>
		<path d="M1477.971,1087.81l-2.213,6.004c-28.754-10.852-57.518-21.708-86.272-32.56c0.697-1.736,1.394-3.472,2.087-5.199
			C1420.317,1066.78,1449.164,1077.255,1477.971,1087.81z"/>
		<path d="M1373.12,1273.493c-1.319,1.673-2.721,3.279-4.083,4.917c-7.178-5.81-65.181-52.826-70.602-56.948
			c1.26-1.427,2.497-2.874,3.663-4.377C1325.761,1235.909,1349.524,1254.603,1373.12,1273.493z"/>
		<path d="M1463.951,1116.768c-0.844,1.938-1.795,3.819-2.739,5.713l-79.613-34.517c0.683-1.729,1.433-3.409,1.938-5.192
			C1410.309,1094.175,1437.195,1105.329,1463.951,1116.768z"/>
		<path d="M1320.98,1326.967c-1.448,1.533-2.904,3.073-4.36,4.614l-59.161-59.785c1.335-1.302,2.663-2.597,3.983-3.885
			C1281.286,1287.593,1301.137,1307.284,1320.98,1326.967z"/>
		<path d="M1501.499,983.864c-0.29,2.085-0.563,4.174-0.941,6.244c-4.733-0.994-74.357-15.388-80.198-16.5
			c0.383-1.82,0.682-3.657,0.979-5.495C1448.053,973.409,1474.805,978.515,1501.499,983.864z"/>
		<path d="M1359.323,1275.615c-1.327,1.729-2.679,3.454-4.055,5.173c-18.51-15.371-36.903-30.902-55.47-46.219
			c1.157-1.46,2.315-2.92,3.466-4.372C1314.344,1239.236,1349.391,1267.897,1359.323,1275.615z"/>
		<path d="M1488.601,1013.37c-0.494,2.036-0.991,4.082-1.491,6.14c-22.238-5.647-44.436-11.463-66.699-17.01
			c0.36-1.858,0.718-3.706,1.107-5.545C1443.925,1002.242,1466.234,1007.924,1488.601,1013.37z"/>
		<path d="M1471.129,1062.862c-0.636,2.033-1.227,4.082-1.94,6.102c-19.847-6.877-39.804-13.443-59.594-20.48
			c0.688-1.749,1.279-3.531,1.909-5.3C1431.397,1049.687,1451.214,1056.423,1471.129,1062.862z"/>
		<path d="M1328.318,1304.687c-1.455,1.527-2.919,3.046-4.406,4.557c-15.303-14.516-30.66-28.99-45.898-43.573
			c1.271-1.409,2.535-2.811,3.799-4.212C1291.485,1270.449,1327.556,1303.978,1328.318,1304.687z"/>
		<path d="M1297.099,1332.716c-1.486,1.455-3.029,2.864-4.579,4.267c-8.992-9.837-11.089-12.001-39.81-42.923
			c1.438-1.31,2.873-2.624,4.231-4.004C1270.098,1304.488,1283.809,1318.414,1297.099,1332.716z"/>
		<path d="M1281.789,1346.846c-1.57,1.33-3.125,2.66-4.774,3.915l-38.363-43.949c1.369-1.282,2.745-2.571,4.114-3.853
			L1281.789,1346.846z"/>
		<path d="M1478.888,1021.71c-0.557,1.973-1.121,3.967-1.681,5.951c-17.406-4.729-34.802-9.456-52.208-14.185
			c0.476-1.852,0.95-3.694,1.424-5.536L1478.888,1021.71z"/>
		<path d="M1456.437,1090.976c-0.695,1.93-1.394,3.871-2.089,5.801c-16.85-6.503-33.577-13.306-50.411-19.876
			c0.684-1.763,1.337-3.538,1.979-5.306C1422.801,1077.938,1439.6,1084.508,1456.437,1090.976z"/>
		<path d="M1344.787,1277.558l-3.904,4.656c-13.24-11.27-26.326-22.72-39.528-34.018c1.247-1.439,2.57-2.8,3.963-4.092
			L1344.787,1277.558z"/>
		<path d="M1331.523,1293.289c-1.392,1.547-2.784,3.11-4.271,4.584c-12.861-11.959-25.978-23.634-38.912-35.528
			c1.222-1.407,2.436-2.807,3.651-4.207C1305.292,1269.707,1318.199,1281.746,1331.523,1293.289z"/>
		<path d="M1317.282,1308.722c-1.43,1.513-2.928,2.959-4.419,4.426c-12.41-12.471-25.161-24.612-37.636-37.017
			c1.299-1.392,2.609-2.76,3.846-4.196L1317.282,1308.722z"/>
		<path d="M1480.712,969.272l-1.177,6.043c-11.519-2.228-23.056-4.3-34.558-6.618c0.364-1.919,0.725-3.827,1.089-5.746
			C1457.631,964.991,1469.195,967.034,1480.712,969.272z"/>
		<path d="M1476.773,989.503c-0.447,1.937-0.895,3.873-1.345,5.82c-11.4-2.434-22.748-5.106-34.161-7.524
			c0.251-1.935,0.629-3.84,0.962-5.744C1443.291,982.28,1469.061,987.674,1476.773,989.503z"/>
		<path d="M1466.934,1029.188c-0.467,1.978-1.012,3.935-1.55,5.895c-11.33-3.286-22.69-6.474-33.988-9.87
			c0.605-1.803,1.205-3.598,1.721-5.427L1466.934,1029.188z"/>
		<path d="M1454.762,1068.286c-0.686,1.947-1.402,3.884-2.119,5.819c-10.986-3.994-21.998-7.947-33.032-11.836
			c0.563-1.849,1.123-3.688,1.686-5.538C1432.479,1060.497,1443.558,1064.585,1454.762,1068.286z"/>
		<path d="M1331.713,1279.846c-1.318,1.589-2.715,3.095-4.094,4.646c-8.897-7.765-17.59-15.758-26.518-23.472
			c1.525-1.421,2.486-2.383,4.206-4.248C1314.057,1264.523,1322.908,1272.158,1331.713,1279.846z"/>
		<path d="M1281.585,1331.387c-1.504,1.301-3.009,2.602-4.521,3.91c-7.921-8.625-15.675-17.402-23.555-26.065
			c1.429-1.36,2.851-2.714,4.266-4.06C1265.677,1313.947,1273.929,1322.401,1281.585,1331.387z"/>
		<path d="M1266.285,1344.801c-2.878,2.52-1.873,1.66-4.748,4.057c-7.534-8.993-15.096-17.978-22.719-26.897
			c2.714-2.278,1.763-1.468,4.483-3.816L1266.285,1344.801z"/>
	</g>
	<g>
		<path d="M1135.175,1624.143c-2.518,1.037-5.023,2.069-7.555,3.113c-6.159-18.237-123.423-335.76-133.702-363.36
			c1.337-0.438,2.666-0.873,3.995-1.308C999.636,1266.765,1085.759,1493.863,1135.175,1624.143z"/>
		<path d="M1112.266,1598.651c-2.383,0.83-4.766,1.66-7.162,2.495c-41.672-118.717-103.83-295.501-106.825-304.585
			c1.388-0.48,2.761-0.954,4.135-1.429C1002.414,1295.132,1084.923,1523.103,1112.266,1598.651z"/>
		<path d="M1130.336,1576.508c-2.256,0.961-4.488,1.982-6.783,2.882c-2.76-6.641-102.594-264.868-106.049-274.348
			c1.214-0.925,2.637-1.464,3.987-2.1C1027.503,1318.05,1114.254,1536.088,1130.336,1576.508z"/>
		<path d="M1092.762,1580.838c-2.279,0.826-4.531,1.691-6.841,2.47c-14.471-43.425-85.186-255.63-87.372-262.191
			c1.466-0.529,2.889-1.162,4.33-1.734C1006.565,1330.105,1092.41,1579.814,1092.762,1580.838z"/>
		<path d="M1144.922,1548.504c-2.193,0.942-4.386,1.884-6.591,2.831c-36.713-86.655-99.015-233.712-99.015-233.712
			c1.516-0.62,3.024-1.237,4.532-1.854C1123.206,1498.571,1121.583,1494.187,1144.922,1548.504z"/>
		<path d="M1041.007,1576.077c-2.362,0.552-4.736,1.107-7.111,1.663c-59.027-225.738-59.069-222.754-60.016-228.568
			c1.493-0.391,2.981-0.802,4.481-1.135C979.423,1350.9,976.147,1339.1,1041.007,1576.077z"/>
		<path d="M1144.401,1518.149c-2.089,0.988-4.167,2-6.3,2.923c-26.702-60.305-53.408-120.621-80.111-180.926
			c1.536-0.785,3.075-1.572,4.607-2.355C1089.686,1397.986,1116.977,1458.098,1144.401,1518.149z"/>
		<path d="M1058.019,1550.812c-2.221,0.726-4.455,1.413-6.701,2.101l-56.435-189.604c1.63-0.453,3.26-0.906,4.881-1.357
			C1019.181,1424.902,1038.602,1487.862,1058.019,1550.812z"/>
		<path d="M1121.489,1523.288c-2.161,0.815-4.311,1.627-6.472,2.442c-23.546-58.335-47.196-116.629-70.917-174.882l4.772-2.001
			C1073.068,1406.998,1097.171,1465.187,1121.489,1523.288z"/>
		<path d="M1181.29,1489.442l-6.195,3.227c-27.261-53.306-73.588-141.142-82.272-158.86c1.517-0.74,3.032-1.465,4.59-2.113
			C1125.375,1384.284,1153.333,1436.863,1181.29,1489.442z"/>
		<path d="M1021.959,1549.736c-2.174,0.594-4.366,1.121-6.561,1.685c-14.057-56.852-28.114-113.704-42.168-170.546
			c1.576-0.554,3.181-0.988,4.772-1.476C978.745,1381.139,1020.732,1544.956,1021.959,1549.736z"/>
		<path d="M998.536,1549.135c-2.222,0.526-4.445,1.052-6.678,1.581c-36.677-172.687-32.057-149.511-33.918-160.514
			c1.63-0.327,3.251-0.652,4.863-0.975C964.815,1398.229,988.887,1505.953,998.536,1549.135z"/>
		<path d="M1145.365,1493.312l-6.163,2.855c-21.504-46.463-42.706-93.076-64.478-139.415c1.742-0.766,3.467-1.547,5.184-2.347
			C1085.706,1367.638,1122.062,1443.913,1145.365,1493.312z"/>
		<path d="M1228.8,1437.553l-5.617,3.618c-64.354-99.645-70.723-109.099-74.997-116.092c1.502-0.938,3.012-1.881,4.505-2.814
			C1178.057,1360.689,1203.428,1399.121,1228.8,1437.553z"/>
		<path d="M1151.111,1479.231c-2.07,0.954-4.15,1.911-6.23,2.87c-9.425-19.99-52.424-109.361-57.565-119.848
			c1.594-0.786,3.197-1.576,4.792-2.362C1097.103,1370.044,1146.397,1470.404,1151.111,1479.231z"/>
		<path d="M1058.168,1514.267c-2.066,0.652-4.142,1.308-6.219,1.964c-12.841-40.705-25.684-81.421-38.525-122.127
			c0.005-0.002,4.916-1.548,5.178-1.63C1031.789,1433.069,1044.977,1473.663,1058.168,1514.267z"/>
		<path d="M1003.291,1520.838c-2.1,0.52-4.224,1.034-6.343,1.523c-8.27-36.059-16.538-72.108-24.808-108.167
			c1.785-0.401,3.559-0.811,5.328-1.24C986.074,1448.911,994.684,1484.88,1003.291,1520.838z"/>
		<path d="M1034.538,1511.667c-2.062,0.602-4.114,1.2-6.195,1.775l-29.562-105.155c1.815-0.426,3.611-0.847,5.408-1.269
			C1014.118,1441.949,1024.458,1476.77,1034.538,1511.667z"/>
		<path d="M895.895,1534.613c-2.115,0.135-4.252,0.271-6.39,0.407c-2.229-34.833-4.727-69.66-6.88-104.498
			c1.791-0.079,3.581-0.158,5.362-0.236C890.623,1465.057,893.259,1499.84,895.895,1534.613z"/>
		<path d="M1253.192,1396.607c-1.676,1.242-3.361,2.49-5.046,3.739c-19.864-26.511-39.417-53.242-59.249-79.776
			c1.431-1.127,2.855-2.248,4.279-3.369C1197.706,1322.937,1243.383,1383.51,1253.192,1396.607z"/>
		<path d="M1207.066,1423.938c-3.371,2.085-2.181,1.367-5.535,3.332c-16.148-25.806-32.307-51.63-48.46-77.444
			c0.021-0.015,2.073-1.401,4.576-3.147C1174.049,1372.478,1190.278,1398.402,1207.066,1423.938z"/>
		<path d="M1179.599,1440.768c-1.827,1.098-3.657,2.192-5.527,3.215c-15.037-26.804-30.079-53.617-45.116-80.421
			c1.659-0.867,3.294-1.778,4.92-2.685C1148.985,1387.58,1164.334,1414.156,1179.599,1440.768z"/>
		<path d="M980.052,1515.739c-2.083,0.453-4.192,0.77-6.288,1.155c-1.543-7.885-16.06-82.321-17.576-88.988
			c1.881-0.287,3.76-0.591,5.615-1.009C967.864,1456.52,974.085,1486.108,980.052,1515.739z"/>
		<path d="M1150.266,1453.929c-1.904,0.918-3.793,1.837-5.752,2.643l-38.795-77.618c1.656-0.848,3.262-1.75,4.81-2.763
			C1123.705,1402.136,1137.127,1427.965,1150.266,1453.929z"/>
		<path d="M905.708,1523.252c-2.096,0.239-4.204,0.479-6.311,0.719l-6.906-83.825c1.859-0.135,3.707-0.269,5.546-0.402
			C900.594,1467.576,903.152,1495.419,905.708,1523.252z"/>
		<path d="M1264.516,1376.384l-4.762,4.152c-2.984-3.806-47.018-59.625-50.773-64.234l4.302-3.548
			C1230.327,1333.995,1247.522,1355.116,1264.516,1376.384z"/>
		<path d="M968.108,1508.512c-2.129,0.473-4.273,0.926-6.433,1.359c-4.323-23.668-8.454-47.384-12.855-71.049
			c1.824-0.375,3.649-0.75,5.463-1.123C956.951,1451.605,965.434,1496.154,968.108,1508.512z"/>
		<path d="M1235.654,1390.687c-1.702,1.223-3.412,2.452-5.132,3.687c-13.385-18.636-26.63-37.373-40.098-55.949
			c1.484-1.173,2.96-2.339,4.454-3.477C1208.624,1353.417,1222.041,1372.123,1235.654,1390.687z"/>
		<path d="M1190.416,1417.293c-1.8,1.14-3.599,2.28-5.408,3.426c-10.769-18.036-21.819-35.899-32.444-54.024l4.873-2.832
			C1168.48,1381.642,1179.314,1399.55,1190.416,1417.293z"/>
		<path d="M925.658,1510.9c-2.097,0.232-4.196,0.452-6.308,0.651c-2.402-20.955-4.873-41.913-7.183-62.879
			c1.879-0.26,3.747-0.518,5.616-0.776C919.421,1461,925.529,1509.867,925.658,1510.9z"/>
		<path d="M883.705,1512.294c-2.076,0.119-4.161,0.302-6.251,0.358c-0.563-13.316-0.778-16.321-2.897-58.47
			c1.944-0.063,3.881-0.236,5.81-0.38C881.167,1473.313,882.718,1492.796,883.705,1512.294z"/>
		<path d="M862.886,1513.308c-2.058,0.018-4.106,0.014-6.176-0.092l-1.11-58.326c1.873-0.096,3.756-0.164,5.627-0.285
			L862.886,1513.308z"/>
		<path d="M1222.841,1390.806c-3.105,2.17-2.019,1.429-5.11,3.48c-10.278-14.823-20.549-29.637-30.827-44.459
			c2.888-2.006,1.888-1.291,4.647-3.328L1222.841,1390.806z"/>
		<path d="M1161.095,1429.366c-1.777,1.024-3.563,2.053-5.339,3.076c-8.72-15.813-17.157-31.783-25.822-47.639
			c1.657-0.913,3.309-1.836,4.941-2.772C1143.725,1397.749,1152.362,1413.583,1161.095,1429.366z"/>
		<path d="M955.714,1500.674l-5.985,1.058c-2.914-17.142-5.594-34.322-8.461-51.46c1.88-0.301,3.768-0.492,5.665-0.586
			L955.714,1500.674z"/>
		<path d="M935.437,1504.212c-2.062,0.289-4.133,0.591-6.221,0.762c-2.176-17.427-4.731-34.8-7.005-52.224
			c1.84-0.291,3.67-0.581,5.5-0.871C930.476,1469.29,932.638,1486.807,935.437,1504.212z"/>
		<path d="M914.601,1506.885c-2.07,0.224-4.141,0.435-6.231,0.573c-1.496-17.529-3.466-35.026-5.055-52.547
			c1.892-0.205,3.766-0.477,5.639-0.764L914.601,1506.885z"/>
		<path d="M1257.972,1351.812l-4.754,3.916c-7.386-9.116-14.885-18.124-22.201-27.299c1.5-1.249,2.992-2.492,4.492-3.742
			C1243.053,1333.687,1250.593,1342.69,1257.972,1351.812z"/>
		<path d="M1241.964,1364.805c-1.56,1.232-3.169,2.402-4.786,3.577c-7.16-9.2-14.125-18.546-21.306-27.744
			c1.455-1.295,2.986-2.489,4.441-3.764C1220.983,1337.73,1237.236,1358.441,1241.964,1364.805z"/>
		<path d="M1208.864,1388.811l-4.961,3.543c-6.557-9.807-13.198-19.557-19.66-29.429c1.6-1.027,3.192-2.048,4.792-3.075
			L1208.864,1388.811z"/>
		<path d="M1174.417,1410.941c-1.783,1.039-3.583,2.05-5.383,3.061c-5.842-10.125-11.729-20.235-17.676-30.312
			c1.627-1.044,3.245-2.082,4.873-3.125C1162.369,1390.642,1168.22,1400.899,1174.417,1410.941z"/>
		<path d="M944.218,1494.024c-2.032,0.367-4.065,0.658-6.121,0.943c-1.833-11.666-3.364-23.375-5.254-35.023
			c2.084-0.093,3.433-0.242,5.949-0.565C940.522,1470.94,942.405,1482.476,944.218,1494.024z"/>
		<path d="M872.673,1501.32c-1.99,0.021-3.979,0.043-5.979,0.065c-0.52-11.699-0.815-23.407-1.279-35.108
			c1.969-0.115,3.928-0.229,5.877-0.343C871.703,1477.734,872.588,1489.517,872.673,1501.32z"/>
		<path d="M852.324,1501.732c-2.075,0.034-4.161,0.068-6.247,0.102c0.016-11.733,0.007-23.476-0.093-35.208
			c1.972-0.041,3.934-0.081,5.885-0.088L852.324,1501.732z"/>
	</g>
	<g>
		<path d="M572.396,1631.384c-2.597-0.824-5.181-1.644-7.792-2.473c7-17.932,121.19-336.573,131.049-364.325
			c1.304,0.524,2.6,1.044,3.897,1.565C698.075,1270.804,590.585,1579.186,572.396,1631.384z"/>
		<path d="M571.217,1597.131c-2.361-0.896-4.721-1.792-7.095-2.693c44.363-117.738,110.344-293.131,113.886-302.015
			c1.363,0.543,2.725,1.047,4.081,1.564C682.09,1293.987,598.814,1521.676,571.217,1597.131z"/>
		<path d="M599.301,1591.778c-2.348-0.71-4.713-1.364-7.051-2.151c2.152-6.862,91.585-268.873,95.028-278.357
			c1.522,0.073,2.959,0.575,4.403,0.953C686.579,1327.661,612.95,1550.472,599.301,1591.778z"/>
		<path d="M567.715,1570.942c-2.279-0.83-4.547-1.655-6.838-2.49c16.821-42.57,99.018-250.598,101.56-257.029
			c1.483,0.481,2.959,0.96,4.434,1.438C662.805,1323.444,568.104,1569.93,567.715,1570.942z"/>
		<path d="M628.474,1579.688c-2.286-0.684-4.573-1.367-6.872-2.055c27.548-89.989,74.299-242.703,74.299-242.703
			c1.561,0.495,3.114,0.988,4.668,1.481C643.918,1527.474,645.492,1523.07,628.474,1579.688z"/>
		<path d="M531.096,1534.036c-2.162-1.101-4.337-2.208-6.511-3.315c90.555-191.159,98.36-209.312,100.951-213.667
			c1.392,0.665,2.792,1.311,4.152,2.024C628.663,1321.95,633.803,1310.664,531.096,1534.036z"/>
		<path d="M647.574,1556.108c-2.243-0.553-4.466-1.186-6.698-1.829c18.289-63.366,36.581-126.742,54.869-190.109
			c1.689,0.352,3.353,0.815,5.039,1.178C682.86,1428.877,665.147,1492.473,647.574,1556.108z"/>
		<path d="M560.387,1525.596c-2.192-0.816-4.327-1.771-6.494-2.681l78.631-181.526c1.54,0.697,3.058,1.447,4.617,2.079
			C611.558,1404.174,585.971,1464.89,560.387,1525.596z"/>
		<path d="M626.722,1545.307c-2.181-0.762-4.35-1.521-6.531-2.283c19.441-59.829,38.776-119.692,58.031-179.57l4.943,1.528
			C664.341,1425.087,645.421,1485.162,626.722,1545.307z"/>
		<path d="M694.261,1557.774l-6.82-1.473c13.439-58.619,34.338-155.383,39.085-174.58c1.643,0.397,3.275,0.805,4.89,1.298
			C719.03,1441.279,706.646,1499.526,694.261,1557.774z"/>
		<path d="M533.445,1501.584c-3.669-1.691-2.39-1.084-6.124-2.901c25.779-52.585,51.558-105.171,77.333-157.746
			c1.554,0.607,3.07,1.29,4.616,1.909C608.729,1344.633,537.166,1493.823,533.445,1501.584z"/>
		<path d="M515.87,1486.097c-2.037-1.032-4.075-2.064-6.122-3.102c82.923-155.85,71.564-135.13,77.211-144.753
			c1.455,0.804,2.902,1.603,4.341,2.397C587.052,1348.828,536.238,1446.818,515.87,1486.097z"/>
		<path d="M664.276,1537.665l-6.56-1.754c13.378-49.419,27.086-98.76,40.179-148.255c1.83,0.526,3.656,1.029,5.488,1.514
			C699.322,1403.037,678.165,1484.841,664.276,1537.665z"/>
		<path d="M763.932,1548.601c-2.21-0.266-4.426-0.491-6.632-0.785c14.875-117.682,16.084-129.02,17.313-137.12
			c1.753,0.254,3.521,0.462,5.269,0.684C774.566,1457.113,769.249,1502.857,763.932,1548.601z"/>
		<path d="M677.718,1530.583c-2.2-0.59-4.41-1.183-6.62-1.777c5.624-21.373,30.109-117.481,32.909-128.819
			c1.73,0.414,3.469,0.83,5.2,1.245C706.511,1412.213,679.782,1520.776,677.718,1530.583z"/>
		<path d="M583.985,1497.712c-2.001-0.831-4.013-1.667-6.025-2.503c16.324-39.438,32.652-78.885,48.976-118.323
			c0.005,0.002,4.755,1.983,5.009,2.088C615.96,1418.55,599.975,1458.126,583.985,1497.712z"/>
		<path d="M537.713,1467.462c-1.94-0.958-3.895-1.936-5.83-2.929c16.846-32.937,33.688-65.865,50.534-98.802
			c1.622,0.846,3.241,1.678,4.868,2.492C570.763,1401.299,554.236,1434.385,537.713,1467.462z"/>
		<path d="M567.552,1480.522c-1.962-0.875-3.915-1.745-5.888-2.625l44.945-99.555c1.669,0.826,3.317,1.655,4.956,2.505
			C596.72,1413.988,582.26,1447.31,567.552,1480.522z"/>
		<path d="M446.596,1408.979c-1.727-1.227-3.436-2.518-5.157-3.791c20.682-28.117,41.153-56.403,61.896-84.475
			c1.421,1.093,2.827,2.206,4.263,3.263C487.265,1352.307,466.928,1380.648,446.596,1408.979z"/>
		<path d="M808.953,1533.002c-2.082-0.144-4.175-0.289-6.268-0.434c1.859-33.076,4.098-66.118,5.996-99.192
			c1.819,0.075,3.629,0.149,5.438,0.224C813.897,1440.908,809.874,1516.666,808.953,1533.002z"/>
		<path d="M756.063,1524.205c-2.115-0.338-4.251-0.679-6.377-1.018c4.245-30.144,8.493-60.309,12.74-90.463
			c1.853,0.145,3.695,0.354,5.531,0.542C763.909,1463.567,759.649,1493.851,756.063,1524.205z"/>
		<path d="M724.23,1519.441l-6.289-1.123c5.72-30.197,11.442-60.404,17.163-90.601c1.835,0.381,3.67,0.763,5.495,1.142
			C734.995,1459.021,729.655,1489.245,724.23,1519.441z"/>
		<path d="M523.196,1448.602c-1.871-1.021-3.744-2.036-5.576-3.128c3.889-7.033,40.623-73.38,43.747-79.461
			c1.604,1.029,3.291,1.907,4.965,2.808C551.932,1395.407,537.675,1422.07,523.196,1448.602z"/>
		<path d="M693.319,1510.689c-2.042-0.545-4.066-1.112-6.091-1.722l20.161-84.399c1.822,0.382,3.618,0.788,5.452,1.026
			C706.258,1453.939,699.941,1482.353,693.319,1510.689z"/>
		<path d="M461.411,1406.588c-1.756-1.169-3.521-2.345-5.286-3.52l48.592-68.652c1.507,1.097,3.007,2.187,4.498,3.272
			C493.282,1360.651,477.344,1383.624,461.411,1406.588z"/>
		<path d="M830.644,1524.805c-2.107,0.101-4.212,0.078-6.319,0.105c0.165-4.833,2.375-75.895,2.467-81.84
			c1.858,0.019,3.714,0.113,5.573,0.06C831.745,1470.358,831.319,1497.589,830.644,1524.805z"/>
		<path d="M518.684,1435.406c-1.931-1.013-3.861-2.051-5.79-3.115c11.906-20.908,23.988-41.729,35.831-62.685
			c1.635,0.892,3.27,1.784,4.896,2.671C546.123,1385.73,524.577,1424.228,518.684,1435.406z"/>
		<path d="M799.338,1517.159c-3.856-0.237-2.511-0.14-6.303-0.457c1.751-22.878,3.674-45.741,5.322-68.628
			c3.47,0.14,2.261,0.1,5.647,0.182C802.639,1471.235,800.868,1494.19,799.338,1517.159z"/>
		<path d="M747.594,1508.443c-2.118-0.234-4.216-0.592-6.333-0.901c3.359-20.735,6.392-41.523,9.919-62.231
			c1.85,0.333,3.69,0.737,5.548,1.011C753.742,1467.037,750.513,1487.718,747.594,1508.443z"/>
		<path d="M484.624,1409.96c-1.754-1.172-3.498-2.361-5.24-3.571c11.631-17.596,23.211-35.238,34.919-52.782
			c1.603,1.014,3.197,2.023,4.791,3.031C511.925,1367.728,485.189,1409.086,484.624,1409.96z"/>
		<path d="M451.609,1384.043c-1.671-1.238-3.351-2.483-5.03-3.728c8.128-10.565,9.895-13.004,35.361-46.657
			c1.565,1.154,3.131,2.308,4.707,3.43C474.719,1352.548,463.384,1368.472,451.609,1384.043z"/>
		<path d="M435.013,1371.437c-1.615-1.275-3.159-2.621-4.683-4.026l36.632-45.401c1.502,1.124,2.967,2.309,4.505,3.385
			L435.013,1371.437z"/>
		<path d="M789.457,1508.99c-2.04-0.201-4.102-0.405-6.153-0.607c1.675-17.959,3.349-35.908,5.024-53.867
			c1.907,0.142,3.804,0.284,5.701,0.425L789.457,1508.99z"/>
		<path d="M717.399,1498.809c-2.019-0.349-4.058-0.654-6.064-1.076c3.488-17.721,7.291-35.374,10.847-53.091
			c1.845,0.422,3.715,0.729,5.569,1.056C724.424,1463.425,720.857,1481.107,717.399,1498.809z"/>
		<path d="M514.22,1421.45l-5.253-3.056c8.789-15.003,17.781-29.885,26.603-44.855c1.63,0.985,3.195,2.058,4.705,3.212
			L514.22,1421.45z"/>
		<path d="M496.422,1411.111c-1.761-1.11-3.538-2.217-5.244-3.433c9.536-14.747,18.748-29.698,28.208-44.506
			c1.593,0.965,3.177,1.926,4.762,2.886C515.072,1381.172,505.468,1395.979,496.422,1411.111z"/>
		<path d="M478.754,1399.751c-1.717-1.177-3.451-2.33-5.157-3.542c10.121-14.389,19.86-29.059,29.906-43.501
			c1.602,1.029,3.219,2.017,4.828,3.015L478.754,1399.751z"/>
		<path d="M841.447,1501.778l-6.16-0.096c0.211-11.731,0.265-23.452,0.568-35.182c1.952,0.02,3.893,0.04,5.845,0.061
			C841.685,1478.304,841.666,1490.048,841.447,1501.778z"/>
		<path d="M820.83,1501.394c-1.986-0.1-3.972-0.199-5.968-0.3c0.44-11.648,1.124-23.286,1.547-34.946
			c1.948-0.094,3.89-0.058,5.823-0.065C822.193,1467.168,821.306,1493.481,820.83,1501.394z"/>
		<path d="M780.038,1498.524l-6.069-0.546c1.294-11.726,2.487-23.464,3.895-35.177c1.884,0.265,3.757,0.529,5.64,0.795
			L780.038,1498.524z"/>
		<path d="M739.446,1493.229c-2.036-0.333-4.067-0.697-6.098-1.063c2.039-11.51,4.035-23.039,5.962-34.578
			c1.921,0.229,3.831,0.457,5.753,0.686C743.28,1469.936,741.162,1481.555,739.446,1493.229z"/>
		<path d="M509.708,1408.935c-1.771-1.061-3.565-2.064-5.313-3.184c6.096-10.115,12.451-20.067,18.492-30.204
			c1.64,1.294,2.826,1.955,4.938,3.363C521.718,1388.878,515.743,1398.924,509.708,1408.935z"/>
		<path d="M450.204,1368.555c-1.536-1.265-3.071-2.53-4.615-3.801c7.12-9.298,14.419-18.457,21.584-27.72
			c1.58,1.181,3.152,2.355,4.716,3.523C464.619,1349.862,457.724,1359.458,450.204,1368.555z"/>
		<path d="M434.354,1355.789c-1.61-1.309-3.229-2.625-4.847-3.942c7.552-8.979,15.091-17.983,22.553-27.036
			c1.536,1.238,3.063,2.47,4.562,3.72L434.354,1355.789z"/>
	</g>
	<g>
		<path d="M136.546,1275.016c-1.445-2.304-2.883-4.595-4.335-6.911c16.892-9.225,309.303-179.719,334.705-194.625
			c0.654,1.25,1.304,2.493,1.954,3.737C464.706,1079.856,172.102,1253.867,136.546,1275.016z"/>
		<path d="M157.74,1248.024c-1.269-2.177-2.527-4.361-3.737-6.587c109.697-61.618,273.032-153.478,281.459-158.001
			c0.672,1.311,1.432,2.555,2.171,3.81C437.633,1087.245,227.408,1208.005,157.74,1248.024z"/>
		<path d="M182.643,1261.973c-1.334-2.055-2.667-4.11-4.008-6.176c6.061-3.867,243.103-146.899,251.846-151.946
			c1.171,1.009,1.897,2.351,2.761,3.572C419.402,1115.957,219.67,1239.137,182.643,1261.973z"/>
		<path d="M171.888,1225.754c-1.202-2.102-2.397-4.193-3.605-6.306c40.257-21.783,236.982-128.229,243.064-131.52
			c0.821,1.33,1.638,2.653,2.455,3.976C403.881,1097.393,172.836,1225.23,171.888,1225.754z"/>
		<path d="M212.711,1271.492c-1.296-2.002-2.591-4.005-3.894-6.018c78.999-51.147,213.063-137.947,213.063-137.947
			c0.863,1.395,1.721,2.782,2.58,4.169C258.136,1241.469,262.173,1239.113,212.711,1271.492z"/>
		<path d="M167.591,1174.025c-0.943-2.232-1.891-4.476-2.84-6.72c191.966-88.165,209.894-97.186,214.649-98.847
			c0.637,1.409,1.291,2.809,1.873,4.235C378.64,1074.235,389.832,1068.891,167.591,1174.025z"/>
		<path d="M242.541,1265.707c-1.322-1.894-2.644-3.788-3.973-5.692c54.78-36.726,109.57-73.458,164.35-110.184
			c1.099,1.336,2.102,2.745,3.125,4.13C351.439,1191.043,296.949,1228.315,242.541,1265.707z"/>
		<path d="M195.469,1186.339c-1.123-2.047-2.24-4.098-3.276-6.204l176.922-88.504c0.696,1.546,1.475,3.049,2.234,4.554
			C312.726,1126.235,254.093,1156.29,195.469,1186.339z"/>
		<path d="M233.536,1244.033c-2.219-3.616-1.456-2.346-3.556-5.927c53.38-33.286,106.702-66.666,159.973-100.11
			c1.708,2.683,1.063,1.693,2.832,4.337C339.695,1176.224,286.552,1210.031,233.536,1244.033z"/>
		<path d="M277.18,1297.067c-1.459-1.814-2.866-3.668-4.265-5.529c47.889-36.127,126.291-96.841,142.263-108.469
			c2.58,3.672,2.491,3.529,2.896,4.14C371.103,1223.833,324.142,1260.45,277.18,1297.067z"/>
		<path d="M190.274,1150.674c-0.952-2.041-1.944-4.063-2.844-6.142c53.539-23.735,107.078-47.471,160.607-71.202
			c0.787,1.472,1.571,2.945,2.332,4.427C348.817,1078.773,203.351,1144.74,190.274,1150.674z"/>
		<path d="M186.747,1127.545c-0.895-2.099-1.79-4.197-2.69-6.307c163.654-66.204,141.64-57.618,152.148-61.367
			c0.598,1.553,1.192,3.098,1.783,4.634C329.473,1068.055,227.588,1110.522,186.747,1127.545z"/>
		<path d="M267.173,1262.355c-2.435-3.384-1.546-2.117-3.901-5.557c42.047-29.211,84.293-58.149,126.174-87.604
			c1.937,2.917,1.244,1.912,3.237,4.683C380.645,1181.88,311.804,1230.866,267.173,1262.355z"/>
		<path d="M336.487,1334.912c-1.551-1.6-3.04-3.257-4.542-4.902c87.033-80.596,95.246-88.504,101.394-93.92
			c1.174,1.325,2.335,2.675,3.556,3.943C403.431,1271.654,369.959,1303.283,336.487,1334.912z"/>
		<path d="M282.003,1265.601c-1.286-1.882-2.577-3.772-3.869-5.662c18.06-12.736,98.658-70.53,108.099-77.406
			c1.04,1.443,2.085,2.893,3.124,4.336C380.229,1193.536,289.898,1259.422,282.003,1265.601z"/>
		<path d="M231.43,1180.163c-0.99-1.925-1.986-3.861-2.981-5.796c37.859-19.71,75.728-39.425,113.588-59.135
			c0.003,0.005,2.35,4.592,2.475,4.836C306.821,1140.099,269.13,1160.128,231.43,1180.163z"/>
		<path d="M215.461,1127.282c-0.867-1.98-1.733-3.986-2.573-5.99c34.068-14.423,68.126-28.841,102.195-43.264
			c0.697,1.693,1.4,3.374,2.121,5.047C283.292,1097.81,249.372,1112.548,215.461,1127.282z"/>
		<path d="M229.92,1156.44c-0.935-1.933-1.864-3.856-2.804-5.799l98.417-47.385c0.743,1.71,1.467,3.409,2.172,5.118
			C295.031,1124.22,262.535,1140.452,229.92,1156.44z"/>
		<path d="M183.167,1023.983c-0.546-2.047-1.02-4.136-1.524-6.218c33.906-8.288,67.759-16.84,101.683-25.054
			c0.389,1.749,0.746,3.507,1.177,5.237C250.728,1006.625,216.942,1015.306,183.167,1023.983z"/>
		<path d="M381.034,1351.878c-1.505-1.445-3.018-2.899-4.532-4.352c22.677-24.15,45.624-48.029,68.33-72.152
			c1.348,1.224,2.689,2.44,4.031,3.658C443.997,1284.487,392.237,1339.952,381.034,1351.878z"/>
		<path d="M346.154,1311.141c-1.413-1.611-2.84-3.238-4.261-4.858c22.629-20.361,45.275-40.737,67.912-61.105
			c1.334,1.292,2.619,2.628,3.913,3.943C391.14,1269.732,368.41,1290.194,346.154,1311.141z"/>
		<path d="M324.833,1286.993l-4.14-4.874c23.805-19.439,47.619-38.885,71.424-58.324c1.173,1.458,2.346,2.917,3.513,4.368
			C371.937,1247.655,348.41,1267.362,324.833,1286.993z"/>
		<path d="M216.46,1103.513c-0.762-1.989-1.574-3.958-2.274-5.971c7.496-2.894,78.252-30.163,84.561-32.822
			c0.564,1.821,1.327,3.567,2.014,5.341C272.648,1081.191,244.597,1092.473,216.46,1103.513z"/>
		<path d="M306.805,1260.377c-1.221-1.725-2.434-3.441-3.61-5.198l69.751-51.62c1.165,1.452,2.31,2.895,3.565,4.253
			C353.232,1225.269,330.109,1242.952,306.805,1260.377z"/>
		<path d="M196.061,1031.659c-0.596-2.024-1.194-4.058-1.793-6.092l81.325-21.46c0.452,1.808,0.901,3.607,1.348,5.396
			C249.984,1016.887,223.017,1024.274,196.061,1031.659z"/>
		<path d="M402.917,1359.538c-1.674-1.282-3.277-2.646-4.909-3.98c3.232-3.598,50.587-56.628,54.477-61.124
			c1.411,1.209,2.779,2.468,4.232,3.628C438.747,1318.527,420.923,1339.118,402.917,1359.538z"/>
		<path d="M221.47,1090.507c-0.827-2.016-1.638-4.052-2.432-6.105c22.552-8.386,45.183-16.591,67.717-25.053
			c0.679,1.735,1.358,3.47,2.034,5.196C274.818,1069.871,232.866,1085.844,221.47,1090.507z"/>
		<path d="M383.834,1333.574c-1.539-1.423-3.007-2.935-4.521-4.417c16.042-16.405,32.207-32.688,48.176-49.166
			c1.411,1.259,2.775,2.551,4.194,3.784C415.872,1300.505,399.765,1316.957,383.834,1333.574z"/>
		<path d="M349.799,1293.615c-1.424-1.585-2.847-3.169-4.278-4.762c15.905-13.721,31.593-27.691,47.61-41.285l3.601,4.336
			C381.126,1265.853,365.359,1279.616,349.799,1293.615z"/>
		<path d="M211.7,1049.14c-0.603-2.021-1.168-4.055-1.73-6.1c20.212-6.028,40.416-12.124,60.655-18.063
			c0.579,1.806,1.156,3.602,1.732,5.399C259.742,1034.278,212.694,1048.832,211.7,1049.14z"/>
		<path d="M203.014,1008.077c-0.486-2.022-0.974-4.055-1.463-6.088c13.014-2.885,15.934-3.621,57.063-13.082
			c0.459,1.889,0.918,3.779,1.406,5.651C240.951,998.759,222.039,1003.694,203.014,1008.077z"/>
		<path d="M198.382,987.755c-0.425-2.013-0.749-4.037-1.011-6.093l57.233-11.296c0.427,1.826,0.791,3.674,1.285,5.485
			L198.382,987.755z"/>
		<path d="M381.518,1320.957c-1.438-1.461-2.892-2.938-4.338-4.406c12.824-12.684,25.64-25.361,38.464-38.045
			c1.374,1.33,2.741,2.652,4.107,3.975L381.518,1320.957z"/>
		<path d="M332.843,1266.82c-1.305-1.581-2.617-3.171-3.922-4.752c14.071-11.32,28.343-22.387,42.465-33.661
			c1.176,1.482,2.36,2.958,3.554,4.412C360.985,1244.251,346.88,1255.493,332.843,1266.82z"/>
		<path d="M227.007,1076.946l-2.062-5.715c16.37-5.861,32.818-11.499,49.193-17.313c0.616,1.802,1.126,3.631,1.542,5.485
			L227.007,1076.946z"/>
		<path d="M220.003,1057.595c-0.637-1.982-1.288-3.971-1.814-5.999c16.778-5.187,33.439-10.739,50.197-16.022
			c0.601,1.763,1.199,3.517,1.797,5.271C253.521,1046.61,236.653,1051.799,220.003,1057.595z"/>
		<path d="M213.749,1037.546c-0.563-2.004-1.145-4.003-1.684-6.025c16.997-4.538,33.88-9.538,50.853-14.165
			c0.592,1.81,1.181,3.61,1.769,5.411L213.749,1037.546z"/>
		<path d="M425.989,1348.838l-4.657-4.033c7.699-8.853,15.273-17.799,23.042-26.592c1.482,1.27,2.956,2.533,4.439,3.803
			C441.255,1331.005,433.695,1339.99,425.989,1348.838z"/>
		<path d="M410.439,1335.296c-1.458-1.351-2.917-2.702-4.383-4.061c7.821-8.642,15.824-17.121,23.639-25.783
			c1.554,1.179,3.02,2.453,4.507,3.688C433.475,1309.946,415.888,1329.539,410.439,1335.296z"/>
		<path d="M381.044,1306.867l-4.319-4.301c8.527-8.152,16.984-16.378,25.591-24.448c1.279,1.408,2.551,2.807,3.829,4.215
			L381.044,1306.867z"/>
		<path d="M353.31,1276.744c-1.373-1.542-2.664-3.153-3.958-4.762c8.964-7.502,17.906-15.047,26.805-22.644
			c1.301,1.43,2.58,2.865,3.931,4.249C371.224,1261.371,362.129,1268.908,353.31,1276.744z"/>
		<path d="M231.59,1064.453c-0.679-1.949-1.397-3.874-2.034-5.849c11.167-3.843,22.428-7.394,33.567-11.29
			c0.443,2.04,0.914,3.313,1.632,5.748C253.674,1056.784,242.643,1060.652,231.59,1064.453z"/>
		<path d="M211.876,995.299c-0.365-1.956-0.73-3.912-1.096-5.879c11.428-2.559,22.904-4.897,34.343-7.401
			c0.453,1.92,0.903,3.829,1.352,5.729C234.928,990.217,223.481,993.149,211.876,995.299z"/>
		<path d="M207.919,975.332c-0.393-2.038-0.787-4.087-1.182-6.136c11.555-2.036,23.116-4.099,34.649-6.248
			c0.381,1.935,0.76,3.86,1.105,5.781L207.919,975.332z"/>
	</g>
	<g>
		<path d="M31.823,721.902c0.354-2.688,0.707-5.362,1.063-8.065c18.872,3.8,352.43,61.336,381.466,66.26
			c-0.286,1.389-0.571,2.77-0.855,4.152C408.685,783.602,86.388,730.831,31.823,721.902z"/>
		<path d="M65.361,714.896c0.469-2.469,0.937-4.938,1.409-7.42c123.632,23.352,307.788,58.033,317.151,59.988
			c-0.278,1.453-0.552,2.89-0.827,4.327C383.094,771.792,144.448,729.058,65.361,714.896z"/>
		<path d="M75.45,741.533c0.25-2.436,0.615-4.849,0.943-7.284c7.129,0.94,280.622,43.944,290.558,45.706
			c0.231,1.528-0.147,3.02-0.226,4.52C350.64,782.103,118.488,747.877,75.45,741.533z"/>
		<path d="M90.518,706.973c0.422-2.378,0.786-4.753,1.287-7.132c44.84,9.196,263.957,54.133,270.731,55.522
			c-0.294,1.536-0.454,3.096-0.678,4.64C350.731,757.828,91.581,707.181,90.518,706.973z"/>
		<path d="M92.392,768.147c0.261-2.369,0.522-4.739,0.829-7.115c93.382,11.695,251.854,31.542,251.854,31.542
			c-0.215,1.627-0.43,3.245-0.644,4.864C146.482,774.405,151.091,775.2,92.392,768.147z"/>
		<path d="M120.487,664.652c0.705-2.317,1.414-4.646,2.123-6.976c230.788,63.205,222.378,60.066,227.986,62.189
			c-0.412,1.491-0.805,2.987-1.27,4.456C346.314,723.811,358.172,726.868,120.487,664.652z"/>
		<path d="M118.884,782.907c0.229-2.297,0.458-4.594,0.688-6.904c65.564,7.15,131.138,14.301,196.702,21.451
			c-0.041,1.728-0.203,3.451-0.333,5.168C250.284,795.857,184.592,789.31,118.884,782.907z"/>
		<path d="M133.887,691.974c0.469-2.285,1.001-4.556,1.526-6.842l192.426,45.899c-0.427,1.641-0.867,3.279-1.266,4.919
			C262.348,721.292,198.112,706.632,133.887,691.974z"/>
		<path d="M125.988,760.541c0.367-2.276,0.733-4.54,1.1-6.817c62.28,8.871,124.575,17.632,186.87,26.311l-0.632,5.149
			C250.882,776.958,188.45,768.635,125.988,760.541z"/>
		<path d="M125.272,829.225l0.253-6.985c59.922,3.168,158.955,7.149,178.699,8.53c-0.1,1.683-0.213,3.357-0.413,5.029
			C244.291,833.608,184.781,831.417,125.272,829.225z"/>
		<path d="M152.84,661.332c0.549-2.183,1.16-4.351,1.789-6.526c56.275,16.214,112.55,32.428,168.815,48.64
			c-0.323,1.64-0.742,3.251-1.081,4.886C320.51,708.111,161.132,663.644,152.84,661.332z"/>
		<path d="M165.016,641.35c0.661-2.184,1.322-4.368,1.987-6.563c167.938,54.427,145.553,46.861,156.014,50.741
			c-0.539,1.575-1.074,3.14-1.607,4.697C312.604,687.473,207.248,654.548,165.016,641.35z"/>
		<path d="M139.951,796.203l0.574-6.766c50.98,4.708,101.943,9.752,152.948,14.166c-0.194,1.894-0.367,3.78-0.519,5.669
			C278.593,807.647,194.375,800.829,139.951,796.203z"/>
		<path d="M146.336,896.415c-0.121-2.227-0.305-4.45-0.361-6.68c118.477-5.777,129.853-6.554,138.044-6.75
			c0.012,1.769,0.142,3.541,0.223,5.298C238.28,890.993,192.308,893.704,146.336,896.415z"/>
		<path d="M149.204,808.233c0.208-2.27,0.384-4.552,0.653-6.827c22.018,1.876,120.9,9.52,132.553,10.335
			c-0.173,1.77-0.285,3.554-0.372,5.329C269.021,816.18,159.197,808.583,149.204,808.233z"/>
		<path d="M165.466,710.358c0.467-2.112,0.936-4.235,1.406-6.358c41.671,9.236,83.353,18.474,125.025,27.71
			c-0.001,0.006-1.119,5.041-1.178,5.309C248.971,728.133,207.224,719.247,165.466,710.358z"/>
		<path d="M187.184,659.598c0.604-2.075,1.226-4.17,1.866-6.246c35.372,10.839,70.734,21.675,106.106,32.513
			c-0.55,1.747-1.089,3.487-1.607,5.234C258.097,680.599,222.636,670.097,187.184,659.598z"/>
		<path d="M179.527,691.222c0.517-2.083,1.032-4.154,1.552-6.248l105.857,26.938c-0.521,1.791-1.049,3.561-1.6,5.326
			C250.119,708.38,214.791,699.933,179.527,691.222z"/>
		<path d="M228.845,559.689c1.669-3.543,1.073-2.315,2.803-5.756c31.3,15.447,62.729,30.659,93.995,46.174
			c-1.507,2.851-0.986,1.828-2.437,4.78C291.756,589.823,260.295,574.754,228.845,559.689z"/>
		<path d="M169.546,938.08c-0.221-2.076-0.444-4.164-0.667-6.252c32.893-3.939,65.819-7.498,98.717-11.398
			c0.243,1.803,0.486,3.596,0.728,5.389C261.09,926.874,185.793,936.136,169.546,938.08z"/>
		<path d="M169.005,884.414c-0.038-2.144-0.077-4.31-0.116-6.465c30.423-1.042,60.868-2.084,91.302-3.127
			c0.183,1.847,0.3,3.695,0.438,5.532C230.084,881.623,199.52,882.68,169.005,884.414z"/>
		<path d="M168.203,852.189l0.001-6.398c30.731,0.434,61.472,0.868,92.203,1.302c-0.052,1.87-0.104,3.74-0.156,5.6
			C229.573,852.375,198.882,852.327,168.203,852.189z"/>
		<path d="M203.218,642.025c0.692-2.015,1.335-4.046,2.095-6.037c7.598,2.598,79.362,27.177,85.884,29.186
			c-0.739,1.757-1.279,3.584-1.889,5.386C260.615,661.025,231.871,651.645,203.218,642.025z"/>
		<path d="M171.518,820.199c0.192-2.106,0.384-4.2,0.631-6.301l86.607,5.383c-0.059,1.86-0.128,3.699-0.056,5.545
			C229.647,823.207,200.567,821.859,171.518,820.199z"/>
		<path d="M233.761,573.846c0.85-1.931,1.705-3.872,2.559-5.813l76.092,35.837c-0.822,1.673-1.639,3.337-2.452,4.991
			C284.563,597.192,259.157,585.517,233.761,573.846z"/>
		<path d="M181.416,958.016c-0.472-2.057-0.832-4.132-1.218-6.205c4.788-0.682,75.143-10.921,81.012-11.869
			c0.296,1.833,0.544,3.674,0.924,5.494C235.217,949.584,208.331,953.924,181.416,958.016z"/>
		<path d="M215.416,635.277c0.662-2.077,1.349-4.157,2.061-6.241c22.668,8.066,45.28,16.322,67.984,24.319
			c-0.595,1.765-1.19,3.531-1.782,5.286C271.266,654.349,227.573,639.165,215.416,635.277z"/>
		<path d="M183.469,925.842c-0.44-3.842-0.302-2.503-0.646-6.29c22.833-2.263,45.682-4.354,68.505-6.719
			c0.463,3.438,0.293,2.245,0.802,5.589C229.265,921.084,206.353,923.343,183.469,925.842z"/>
		<path d="M183.039,873.33c-0.062-2.13-0.123-4.26-0.185-6.401c21.004-0.277,42.002-0.885,63.008-0.993l-0.06,5.634
			C224.884,872.216,203.956,872.616,183.039,873.33z"/>
		<path d="M234.527,597.304c0.789-1.957,1.696-3.864,2.577-5.793c19.359,8.373,38.755,16.689,58.077,25.147
			c-0.712,1.758-1.472,3.484-2.125,5.256C280.884,616.796,235.487,597.707,234.527,597.304z"/>
		<path d="M254.259,560.256c0.934-1.859,1.873-3.727,2.811-5.596c11.823,6.157,14.533,7.47,52.119,26.663
			c-0.869,1.739-1.738,3.478-2.574,5.223C289.309,577.506,271.649,569.128,254.259,560.256z"/>
		<path d="M263.79,541.717c1-1.799,1.956-3.61,3.113-5.334l51.1,28.143c-0.883,1.653-1.695,3.356-2.511,5.044L263.79,541.717z"/>
		<path d="M189.79,914.682c-0.158-2.045-0.319-4.112-0.478-6.168c17.977-1.477,35.942-2.953,53.919-4.43
			c0.193,1.901,0.385,3.793,0.578,5.684L189.79,914.682z"/>
		<path d="M187.312,841.893c-0.046-2.052,0.034-4.112,0.059-6.162c18.056,0.389,36.101,1.101,54.165,1.558
			c-0.051,1.891-0.162,3.78-0.123,5.662C223.378,842.724,205.346,842.254,187.312,841.893z"/>
		<path d="M228.369,628.443l2.095-5.704c16.309,6.029,32.534,12.28,48.817,18.348c-0.685,1.777-1.48,3.502-2.344,5.193
			L228.369,628.443z"/>
		<path d="M235.436,609.112c0.789-1.927,1.572-3.868,2.476-5.758c16.187,6.809,32.52,13.264,48.755,19.987
			c-0.676,1.736-1.348,3.462-2.021,5.188C268.176,622.238,251.919,615.372,235.436,609.112z"/>
		<path d="M243.54,589.734c0.861-1.896,1.721-3.791,2.587-5.697c15.942,7.45,32.084,14.471,48.063,21.837
			c-0.712,1.766-1.42,3.522-2.128,5.279L243.54,589.734z"/>
		<path d="M205.965,964.631l-0.975-6.084c11.587-1.843,23.137-3.839,34.739-5.591c0.319,1.925,0.636,3.84,0.954,5.766
			C229.118,960.761,217.553,962.796,205.965,964.631z"/>
		<path d="M202.744,944.26c-0.247-1.973-0.495-3.946-0.744-5.931c11.546-1.6,23.125-2.959,34.679-4.578
			c0.431,1.902,0.734,3.82,1.077,5.721C236.682,939.624,210.619,943.347,202.744,944.26z"/>
		<path d="M198.465,903.58l-0.525-6.074c11.773-0.764,23.539-1.63,35.318-2.28c0.069,1.9,0.137,3.79,0.206,5.689L198.465,903.58z"/>
		<path d="M196.627,862.664c-0.027-2.064-0.034-4.129-0.018-6.193c11.689,0.022,23.388-0.002,35.089-0.094
			c0.11,1.93,0.219,3.85,0.329,5.78C220.231,862.416,208.421,862.337,196.627,862.664z"/>
		<path d="M239.915,621.817c0.729-1.932,1.453-3.853,2.186-5.795c11.026,4.233,21.935,8.748,32.973,12.923
			c-0.931,1.863-1.421,3.129-2.428,5.458C261.764,630.133,250.827,626.008,239.915,621.817z"/>
		<path d="M269.245,556.155c0.984-1.73,1.968-3.459,2.958-5.198c10.399,5.387,20.692,10.973,31.064,16.41
			c-0.893,1.758-1.782,3.507-2.667,5.247C290.169,567.081,279.514,561.969,269.245,556.155z"/>
		<path d="M279.064,538.324c1.016-1.81,2.037-3.629,3.059-5.449c10.159,5.869,20.34,11.721,30.556,17.49
			c-0.958,1.724-1.912,3.438-2.889,5.128L279.064,538.324z"/>
	</g>
	<g>
		<path d="M307.087,230.92c1.981-1.866,4.01-3.653,6.047-5.477c12.001,15.044,230.421,273.627,249.491,296.075
			c-1.135,0.839-2.258,1.682-3.332,2.582C556.223,520.73,401.18,340.363,307.087,230.92z"/>
		<path d="M337.336,247.139c1.94-1.608,3.881-3.216,5.831-4.833c79.632,97.411,198.312,242.43,204.224,249.952
			c-1.13,0.944-2.248,1.878-3.366,2.812C544.025,495.07,388.783,308.852,337.336,247.139z"/>
		<path d="M327.874,274.055c1.803-1.659,3.606-3.318,5.418-4.986c4.856,5.302,186.669,214.088,193.148,221.827
			c-0.799,1.318-2.004,2.254-3.066,3.307C512.578,482.046,356.76,306.583,327.874,274.055z"/>
		<path d="M361.692,257.205c1.871-1.536,3.732-3.065,5.612-4.609c28.407,35.891,167.223,211.281,171.515,216.703
			c-1.177,1.028-2.347,2.052-3.518,3.075C528.182,463.551,362.372,258.049,361.692,257.205z"/>
		<path d="M323.698,305.336c1.7-1.675,3.476-3.269,5.248-4.885c64.023,68.978,172.672,186.037,172.672,186.037
			c-1.231,1.082-2.461,2.154-3.649,3.27C361.116,344.892,364.137,348.464,323.698,305.336z"/>
		<path d="M411.912,244.079c3.713-2.49,2.403-1.634,6.105-3.984c136.143,197.198,131.531,189.099,134.456,194.334
			c-1.488,0.999-3.822,2.597-3.833,2.604C546.667,434.71,553.808,444.729,411.912,244.079z"/>
		<path d="M334.533,333.709c1.647-1.621,3.294-3.241,4.949-4.87c45.637,47.613,91.282,95.233,136.919,142.845
			c-1.134,1.303-2.358,2.524-3.553,3.761C426.889,428.07,380.763,380.839,334.533,333.709z"/>
		<path d="M404.602,273.654c1.83-1.449,3.674-2.88,5.535-4.309L527.87,428.322c-1.367,1.002-2.734,2.003-4.093,3
			C484.054,378.768,444.325,326.207,404.602,273.654z"/>
		<path d="M354.352,321.112c1.738-1.519,3.468-3.029,5.206-4.548c42.004,46.831,84.091,93.588,126.229,140.281l-3.762,3.559
			C439.476,413.967,397,367.461,354.352,321.112z"/>
		<path d="M309.642,373.291l4.678-5.192c43.808,40.863,117.238,107.644,131.448,121.358c-1.158,1.227-2.318,2.438-3.545,3.592
			C398.024,453.124,353.833,413.207,309.642,373.291z"/>
		<path d="M438.82,262.381c1.847-1.286,3.695-2.572,5.552-3.865c32.634,48.629,65.268,97.257,97.896,145.877
			c-1.284,1.076-2.623,2.07-3.956,3.071C537.031,406.096,445.393,271.994,438.82,262.381z"/>
		<path d="M460.99,254.927c3.98-2.696,2.672-1.824,5.72-3.774c93.524,149.728,81.26,129.534,86.768,139.232
			c-1.446,0.828-2.846,1.712-4.236,2.596C544.272,385.209,484.821,292.207,460.99,254.927z"/>
		<path d="M342.111,357.418l4.776-4.83c36.036,36.366,71.843,72.98,108.086,109.137c-1.36,1.331-2.699,2.669-4.024,4.022
			C440.987,455.275,380.839,395.934,342.111,357.418z"/>
		<path d="M282.622,438.298l4-5.36c94.479,71.721,103.694,78.437,110.094,83.551c-1.073,1.405-2.152,2.818-3.22,4.215
			C356.544,493.24,319.583,465.769,282.622,438.298z"/>
		<path d="M341.462,372.576c1.604-1.619,3.26-3.202,4.904-4.797c15.666,15.586,86.521,84.981,94.926,93.092
			c-1.245,1.268-2.53,2.512-3.725,3.828C428.177,455.664,348.859,379.235,341.462,372.576z"/>
		<path d="M416.898,308.006c3.149-2.458,2.045-1.613,5.177-3.957c25.952,33.887,51.91,67.782,77.862,101.669
			c-2.538,1.887-1.656,1.215-4.32,3.296C469.38,375.347,443.143,341.681,416.898,308.006z"/>
		<path d="M466.192,283.12c1.806-1.186,3.639-2.374,5.473-3.537c20.098,31.06,40.19,62.111,60.287,93.171
			c-1.555,0.969-3.096,1.942-4.627,2.932C506.95,344.833,486.568,313.972,466.192,283.12z"/>
		<path d="M439.98,302.397c1.749-1.244,3.49-2.481,5.249-3.732l63.676,88.751c-1.564,1.017-3.12,2.013-4.69,2.992
			C482.965,360.965,461.362,331.76,439.98,302.397z"/>
		<path d="M562.305,233.475c1.929-0.873,3.855-1.807,5.834-2.627c14.061,31.946,28.373,63.796,42.365,95.772
			c-1.673,0.649-3.296,1.413-4.935,2.117C591.149,296.986,576.725,265.226,562.305,233.475z"/>
		<path d="M273.603,485.111c1.17-1.729,2.347-3.468,3.524-5.206c27.729,18.128,55.237,36.568,82.944,54.729
			c-0.978,1.534-1.951,3.06-2.924,4.586C350.927,535.377,287.297,494.066,273.603,485.111z"/>
		<path d="M307.69,443.668c1.351-1.664,2.716-3.346,4.074-5.02c23.978,18.754,47.973,37.522,71.96,56.282
			c-1.05,1.53-2.151,3.02-3.229,4.514C356.278,480.786,332.184,461.952,307.69,443.668z"/>
		<path d="M327.783,418.47l4.113-4.9c23.268,20.079,46.544,40.166,69.811,60.245c-1.242,1.399-2.484,2.799-3.72,4.191
			C374.687,458.048,351.202,438.289,327.783,418.47z"/>
		<path d="M489.786,280.022l5.487-3.27c4.149,6.883,43.262,71.859,46.966,77.599c-1.666,0.924-3.287,1.921-4.914,2.909
			C521.496,331.499,505.528,305.823,489.786,280.022z"/>
		<path d="M350.884,396.096c1.497-1.493,2.987-2.977,4.524-4.43l62.903,59.774c-1.237,1.39-2.469,2.758-3.598,4.22
			C393.493,435.751,372.076,416.034,350.884,396.096z"/>
		<path d="M556.97,247.455c1.893-0.928,3.796-1.861,5.699-2.794l35.275,76.354c-1.708,0.75-3.406,1.495-5.096,2.237
			C580.89,297.99,568.928,272.718,556.97,247.455z"/>
		<path d="M269.912,508.031c0.995-1.858,1.959-3.737,3.026-5.553c4.106,2.556,64.577,39.943,69.683,42.991
			c-0.983,1.576-1.881,3.203-2.794,4.82C316.542,536.161,293.158,522.2,269.912,508.031z"/>
		<path d="M503.443,282.678c1.848-1.153,3.718-2.293,5.609-3.419c12.165,20.758,24.166,41.625,36.404,62.354
			c-1.598,0.959-3.196,1.918-4.785,2.873C533.556,332.583,510.189,293.381,503.443,282.678z"/>
		<path d="M292.161,484.706c1.17-1.739,2.31-3.513,3.524-5.25c18.945,12.944,37.791,26.03,56.796,38.89
			c-1.013,1.595-1.951,3.227-2.954,4.814C330.299,510.501,311.297,497.503,292.161,484.706z"/>
		<path d="M325.58,444.209c1.282-1.702,2.63-3.352,3.959-5.033c16.271,13.285,32.75,26.315,48.913,39.731
			c-1.212,1.434-2.468,2.833-3.654,4.289C358.355,470.247,342.063,457.104,325.58,444.209z"/>
		<path d="M542.505,265.942c1.878-0.959,3.749-1.933,5.681-2.809c9.447,18.858,18.959,37.697,28.322,56.596
			c-1.694,0.854-3.338,1.785-4.994,2.692C565.48,310.675,542.981,266.868,542.505,265.942z"/>
		<path d="M581.405,250.228c1.91-0.821,3.831-1.646,5.751-2.471c5.106,12.312,6.34,15.06,22.818,53.913
			c-1.785,0.772-3.571,1.543-5.335,2.339C597.185,285.965,589.032,268.198,581.405,250.228z"/>
		<path d="M600.613,242.151c1.925-0.727,3.816-1.511,5.806-2.099l21.101,54.387c-1.736,0.709-3.448,1.504-5.162,2.264
			L600.613,242.151z"/>
		<path d="M304.162,480.212c1.198-1.665,2.408-3.348,3.613-5.022c14.72,10.424,29.431,20.841,44.152,31.265
			c-1.079,1.577-2.152,3.147-3.226,4.716L304.162,480.212z"/>
		<path d="M349.043,422.863c1.287-1.598,2.669-3.128,4.005-4.684c13.585,11.9,26.955,24.04,40.503,35.998
			c-1.254,1.415-2.547,2.798-3.733,4.259C376.144,446.674,362.629,434.727,349.043,422.863z"/>
		<path d="M517.784,285.833c1.733-1.048,3.473-2.084,5.245-3.064c8.61,15.107,17.013,30.328,25.578,45.448
			c-1.684,0.892-3.375,1.751-5.111,2.515L517.784,285.833z"/>
		<path d="M535.594,275.532c1.846-0.961,3.697-1.936,5.607-2.796c8.02,15.623,16.38,31.068,24.491,46.656
			c-1.638,0.888-3.267,1.772-4.896,2.655C552.228,306.638,544.192,290.926,535.594,275.532z"/>
		<path d="M554.262,265.921c1.88-0.893,3.76-1.786,5.65-2.683c7.424,15.953,15.28,31.707,22.787,47.62
			c-1.684,0.89-3.359,1.775-5.034,2.66L554.262,265.921z"/>
		<path d="M284.431,528.862l3.183-5.275c10.06,6.037,20.19,11.935,30.203,18.051c-1,1.676-1.995,3.343-2.995,5.019
			C304.653,540.782,294.486,534.905,284.431,528.862z"/>
		<path d="M295.075,511.197c1.085-1.667,2.17-3.334,3.26-5.01c9.873,6.197,19.615,12.6,29.507,18.787
			c-0.898,1.73-1.906,3.39-2.871,5.064C324.05,529.463,301.693,515.559,295.075,511.197z"/>
		<path d="M317.939,477.281l3.506-4.987c9.51,6.982,19.08,13.881,28.522,20.955c-1.178,1.492-2.353,2.975-3.505,4.487
			L317.939,477.281z"/>
		<path d="M342.834,444.762c1.305-1.6,2.635-3.178,3.966-4.757c8.942,7.529,17.922,15.029,26.945,22.476
			c-1.156,1.55-2.306,3.091-3.463,4.641C361.079,459.741,352.081,452.091,342.834,444.762z"/>
		<path d="M530.867,288.159c1.805-1.002,3.599-1.999,5.413-3.006c5.72,10.33,11.173,20.807,16.939,31.099
			c-1.914,0.825-3.108,1.469-5.384,2.595C542.249,308.58,536.527,298.387,530.867,288.159z"/>
		<path d="M595.519,256.707c1.866-0.691,3.732-1.382,5.607-2.077c4.511,10.808,8.813,21.7,13.272,32.529
			c-1.815,0.771-3.621,1.539-5.418,2.302C604.538,278.521,599.656,267.758,595.519,256.707z"/>
		<path d="M614.495,249.353c1.941-0.733,3.893-1.47,5.844-2.207c4.02,11.022,8.068,22.046,12.197,33.028
			c-1.843,0.704-3.675,1.404-5.51,2.07L614.495,249.353z"/>
	</g>
	<g>
		<path d="M833.637,31.738c2.724-0.118,5.433-0.236,8.171-0.354c-0.49,19.236,0.403,357.721,0.562,387.176
			c-1.402-0.065-2.797-0.08-4.193-0.116C837.98,413.519,834.15,76.508,833.637,31.738z"/>
		<path d="M846.389,63.586c2.524,0.029,5.048,0.058,7.586,0.087c-1.708,125.807-4.154,313.183-4.467,322.744
			c-1.468-0.016-2.92-0.031-4.373-0.047C845.135,386.37,846.077,143.93,846.389,63.586z"/>
		<path d="M821.786,78.093c2.452-0.102,4.904-0.205,7.369-0.308c0.309,7.184,5.248,283.993,5.232,294.085
			c-1.456,0.487-2.976,0.415-4.461,0.534C829.476,356.151,822.989,121.579,821.786,78.093z"/>
		<path d="M858.579,86.965c2.426-0.038,4.834,0.044,7.271,0.083c-1.35,45.753-7.946,269.333-8.15,276.245
			c-1.56,0.021-3.111,0.001-4.662,0.089C853.266,352.047,858.558,88.048,858.579,86.965z"/>
		<path d="M798.432,99.41c2.385-0.149,4.769-0.338,7.171-0.402c4.691,93.994,12.652,253.506,12.652,253.506
			c-1.636,0.003-3.256,0.143-4.882,0.192C801.666,153.764,801.684,158.442,798.432,99.41z"/>
		<path d="M905.502,109.264c2.404,0.288,4.821,0.577,7.239,0.866c-22.721,238.427-21.049,229.381-22.18,235.273
			c-1.541-0.141-3.083-0.262-4.61-0.46C885.937,341.889,884.958,354.097,905.502,109.264z"/>
		<path d="M788.474,128.079c2.307-0.177,4.614-0.354,6.933-0.531c4.356,65.808,8.713,131.627,13.069,197.436
			c-1.703,0.262-3.423,0.405-5.131,0.577C798.583,259.728,793.601,193.898,788.474,128.079z"/>
		<path d="M880.865,127.155c2.333,0.085,4.666,0.193,7.01,0.314l-12.207,197.448c-1.689-0.129-3.377-0.259-5.057-0.387
			C874.029,258.741,877.447,192.942,880.865,127.155z"/>
		<path d="M811.786,131.183c2.311-0.037,4.61-0.075,6.922-0.112c2.054,62.875,4.22,125.746,6.466,188.603l-5.162,0.283
			C817.281,257.031,814.65,194.102,811.786,131.183z"/>
		<path d="M743.914,142.443l6.928-0.968c7.336,59.503,20.712,157.752,22.801,177.444c-1.673,0.194-3.339,0.374-5.018,0.467
			C760.387,260.398,752.151,201.421,743.914,142.443z"/>
		<path d="M914.322,140.532c2.239,0.226,4.477,0.453,6.728,0.68c-6.322,58.222-12.645,116.444-18.966,174.655
			c-1.674-0.024-3.337-0.146-5-0.259C896.985,313.75,912.899,154.791,914.322,140.532z"/>
		<path d="M936.071,149.142c2.263,0.267,4.525,0.534,6.8,0.802c-24.76,174.793-21.152,151.44-23.178,162.413
			c-1.648-0.253-3.287-0.504-4.917-0.753C915.974,302.457,930.32,193.013,936.071,149.142z"/>
		<path d="M779.03,151.133l6.772-0.618c4.238,51.021,8.142,102.084,12.673,153.079c-1.895,0.14-3.779,0.3-5.662,0.479
			C791.911,289.648,783.955,205.53,779.03,151.133z"/>
		<path d="M681.422,174.944l6.508-1.547c26.416,115.639,29.171,126.704,30.797,134.734c-1.724,0.39-3.458,0.781-5.172,1.169
			C702.845,264.522,692.133,219.733,681.422,174.944z"/>
		<path d="M768.783,162.341c4.196-0.369,2.728-0.251,6.844-0.545c1.989,22.008,11.695,120.71,12.924,132.326
			c-3.259,0.296-2.131,0.179-5.306,0.559C782.038,283.43,770.181,172.242,768.783,162.341z"/>
		<path d="M868.161,161.403c2.164,0.089,4.339,0.178,6.515,0.267c-1.944,42.638-3.888,85.288-5.832,127.926
			c-0.006,0-5.151-0.211-5.425-0.222C865,246.721,866.58,204.068,868.161,161.403z"/>
		<path d="M921.913,174.087c2.147,0.234,4.319,0.464,6.472,0.749c-4.607,36.707-9.213,73.403-13.821,110.111
			c-1.815-0.251-3.626-0.461-5.438-0.667C913.388,247.552,917.651,210.814,921.913,174.087z"/>
		<path d="M889.447,171.955c2.144,0.126,4.274,0.278,6.422,0.492l-8.389,108.909c-1.849-0.268-3.682-0.472-5.516-0.697
			C884.651,244.443,886.914,208.191,889.447,171.955z"/>
		<path d="M1027.378,197.822c3.774,1.029,2.462,0.655,6.151,1.758c-9.753,33.514-19.251,67.114-29.076,100.607
			c-3.075-0.988-1.972-0.652-5.136-1.571C1008.669,265.021,1018.025,231.416,1027.378,197.822z"/>
		<path d="M644.459,205.05c2.007-0.574,4.025-1.151,6.043-1.728c9.628,31.699,18.888,63.495,28.479,95.205
			c-1.735,0.548-3.461,1.093-5.187,1.639C671.491,293.227,649.213,220.707,644.459,205.05z"/>
		<path d="M697.199,195.15c2.105-0.408,4.232-0.821,6.348-1.232c6.348,29.772,12.701,59.565,19.051,89.347
			c-1.787,0.499-3.587,0.933-5.373,1.385C710.633,254.799,704.246,224.892,697.199,195.15z"/>
		<path d="M728.793,188.724l6.303-1.111c4.945,30.333,9.891,60.677,14.835,91.011c-1.85,0.273-3.7,0.546-5.541,0.818
			C739.34,249.181,734.021,218.954,728.793,188.724z"/>
		<path d="M941.962,186.847c2.109,0.289,4.197,0.701,6.293,1.065c-1.25,7.925-13.111,82.839-13.97,89.625
			c-1.868-0.384-3.743-0.731-5.632-0.975C933.112,246.656,937.411,216.729,941.962,186.847z"/>
		<path d="M760.885,186.401c2.108-0.178,4.205-0.355,6.318-0.478l9.807,86.218c-1.84,0.266-3.662,0.519-5.466,0.911
			C768.069,244.163,764.32,215.294,760.885,186.401z"/>
		<path d="M1014.301,205.137c2.048,0.499,4.107,1.001,6.166,1.503l-22.035,81.171c-1.792-0.517-3.575-1.031-5.348-1.543
			C1000.155,259.228,1007.23,232.177,1014.301,205.137z"/>
		<path d="M626.924,220.258c1.957-0.78,3.899-1.61,5.882-2.319c1.508,4.595,23.877,72.08,25.835,77.694
			c-1.765,0.58-3.496,1.259-5.237,1.907C644.619,271.761,635.652,246.045,626.924,220.258z"/>
		<path d="M950.691,197.727c2.158,0.287,4.325,0.597,6.499,0.931c-4.037,23.719-8.27,47.417-12.232,71.159
			c-1.845-0.275-3.69-0.55-5.525-0.824C941.652,255.245,948.972,210.254,950.691,197.727z"/>
		<path d="M658.95,216.655c2.013-0.584,4.027-1.206,6.07-1.767c6.22,22.086,12.274,44.216,18.595,66.275
			c-1.792,0.602-3.574,1.2-5.355,1.798C671.64,260.913,665.411,238.75,658.95,216.655z"/>
		<path d="M710.573,207.051c2.073-0.498,4.17-0.884,6.267-1.322c3.947,20.631,8.218,41.2,11.998,61.863
			c-1.849,0.323-3.712,0.576-5.552,0.947C718.99,248.056,714.935,227.52,710.573,207.051z"/>
		<path d="M991.356,209.957c2.054,0.475,4.093,1.014,6.144,1.548c-4.883,20.519-9.702,41.065-14.675,61.562
			c-1.856-0.399-3.695-0.823-5.546-1.198C980.206,258.994,991.125,210.972,991.356,209.957z"/>
		<path d="M1031.244,222.946c1.992,0.595,3.995,1.193,5.998,1.791c-3.999,12.716-4.818,15.614-17.157,55.972
			c-1.865-0.552-3.73-1.105-5.594-1.624C1020.373,260.468,1025.541,241.617,1031.244,222.946z"/>
		<path d="M1051.153,229.094c1.942,0.68,3.897,1.287,5.797,2.123l-18.779,55.232c-1.782-0.58-3.609-1.062-5.41-1.582
			L1051.153,229.094z"/>
		<path d="M671.036,220.91c1.987-0.507,3.996-1.02,5.994-1.531c4.598,17.441,9.194,34.872,13.792,52.313
			c-1.84,0.517-3.67,1.03-5.501,1.544L671.036,220.91z"/>
		<path d="M742.275,205.751c2.014-0.398,4.052-0.71,6.078-1.029c2.772,17.846,5.223,35.738,7.929,53.605
			c-1.872,0.265-3.746,0.517-5.593,0.878C747.761,241.407,745.072,223.57,742.275,205.751z"/>
		<path d="M959.644,209.318l5.977,1.065c-3.121,17.105-6.474,34.167-9.637,51.253c-1.871-0.365-3.712-0.836-5.528-1.401
			L959.644,209.318z"/>
		<path d="M979.888,212.923c2.033,0.438,4.08,0.869,6.098,1.427c-3.898,17.123-7.422,34.327-11.227,51.482
			c-1.829-0.361-3.648-0.72-5.467-1.08C972.634,247.442,976.579,230.24,979.888,212.923z"/>
		<path d="M1000.366,217.529c2.016,0.515,4.031,1.03,6.058,1.548c-4.563,16.995-8.668,34.113-13.141,51.13
			c-1.865-0.392-3.719-0.781-5.574-1.171L1000.366,217.529z"/>
		<path d="M624.682,245.543l5.828-1.997c3.837,11.087,7.819,22.112,11.569,33.23c-1.843,0.642-3.677,1.28-5.52,1.922
			C632.533,267.665,628.511,256.632,624.682,245.543z"/>
		<path d="M644.182,238.836c1.902-0.581,3.804-1.162,5.716-1.746c3.593,11.089,6.954,22.252,10.567,33.346
			c-1.8,0.75-3.638,1.375-5.453,2.037C654.676,271.441,646.457,246.429,644.182,238.836z"/>
		<path d="M683.484,227.507c1.957-0.546,3.926-1.05,5.889-1.576c2.812,11.457,5.722,22.891,8.423,34.375
			c-1.861,0.39-3.715,0.765-5.567,1.193L683.484,227.507z"/>
		<path d="M723.449,218.55c2.028-0.387,4.062-0.742,6.096-1.097c2.022,11.513,4.092,23.029,6.229,34.531
			c-1.882,0.445-3.753,0.887-5.634,1.331C727.822,241.747,725.834,230.105,723.449,218.55z"/>
		<path d="M968.161,219.52c2.026,0.388,4.054,0.711,6.077,1.172c-2.26,11.592-4.818,23.119-7.018,34.712
			c-1.985-0.656-3.325-0.878-5.795-1.471C963.749,242.477,965.92,230.992,968.161,219.52z"/>
		<path d="M1037.895,236.981c1.874,0.668,3.748,1.336,5.632,2.008c-3.488,11.18-7.191,22.29-10.732,33.453
			c-1.887-0.574-3.764-1.145-5.632-1.713C1030.789,259.491,1033.964,248.108,1037.895,236.981z"/>
		<path d="M1057.163,243.534c1.958,0.686,3.927,1.376,5.896,2.066c-4.003,11.029-7.984,22.076-11.878,33.144
			c-1.864-0.645-3.718-1.287-5.552-1.956L1057.163,243.534z"/>
	</g>
	<g>
		<path d="M1364.89,217.663c2.162,1.658,4.313,3.307,6.487,4.974c-12.742,14.431-229.568,274.35-248.371,297.017
			c-1.052-0.932-2.098-1.859-3.144-2.785C1122.832,513.025,1329.818,260.465,1364.89,217.663z"/>
		<path d="M1354.192,250.252c1.914,1.644,3.828,3.288,5.753,4.94c-82.15,95.298-204.427,237.298-210.81,244.423
			c-1.115-0.957-2.219-1.903-3.322-2.849C1145.812,496.766,1302.324,311.611,1354.192,250.252z"/>
		<path d="M1326.02,245.577c1.978,1.453,3.897,2.979,5.851,4.484c-4.38,5.703-178.485,220.959-184.982,228.681
			c-1.434-0.557-2.533-1.618-3.775-2.447C1153.215,463.554,1298.995,279.666,1326.02,245.577z"/>
		<path d="M1348.504,275.997c1.881,1.53,3.672,3.142,5.516,4.734c-30.433,34.191-179.15,201.268-183.747,206.433
			c-1.212-0.984-2.385-1.999-3.631-2.929C1174.1,475.697,1347.791,276.813,1348.504,275.997z"/>
		<path d="M1294.443,246.902c1.927,1.413,3.845,2.836,5.761,4.283c-56.818,75.024-153.239,202.344-153.239,202.344
			c-1.297-0.996-2.587-1.987-3.878-2.978C1261.985,290.621,1258.992,294.215,1294.443,246.902z"/>
		<path d="M1370.131,323.233c1.662,1.761,3.334,3.533,5.006,5.304c-151.94,149.681-164.188,162.766-168.18,166.016
			c-1.093-1.093-2.2-2.172-3.247-3.3C1205.661,488.905,1197.067,497.63,1370.131,323.233z"/>
		<path d="M1268.398,262.458c1.898,1.322,3.762,2.691,5.649,4.048c-38.962,53.214-77.929,106.437-116.891,159.651
			c-1.475-0.893-2.869-1.911-4.304-2.858C1191.523,369.803,1230.02,316.173,1268.398,262.458z"/>
		<path d="M1339.749,321.114c1.736,1.562,3.457,3.141,5.178,4.737l-136.223,143.45c-1.213-1.181-2.427-2.362-3.633-3.537
			C1249.961,417.55,1294.858,369.328,1339.749,321.114z"/>
		<path d="M1284.255,279.813c1.792,1.459,3.574,2.91,5.366,4.37c-38.835,49.491-77.581,99.051-116.257,148.651l-4.132-3.111
			C1207.582,379.76,1246.01,329.858,1284.255,279.813z"/>
		<path d="M1225.04,244.826l5.916,3.731c-32.621,50.275-85.555,134.158-96.607,150.575c-1.403-0.933-2.791-1.872-4.134-2.886
			C1161.827,345.766,1193.433,295.296,1225.04,244.826z"/>
		<path d="M1356.782,352.88c1.577,1.607,3.154,3.214,4.74,4.829c-42.26,40.544-84.52,81.088-126.773,121.625
			c-1.272-1.087-2.473-2.242-3.68-3.39C1232.192,474.451,1347.306,362.133,1356.782,352.88z"/>
		<path d="M1367.935,373.455c1.573,1.653,3.145,3.305,4.725,4.966C1241.33,496.397,1259.108,480.825,1250.5,487.931
			c-1.107-1.243-2.209-2.48-3.304-3.709C1253.994,477.986,1335.331,403.366,1367.935,373.455z"/>
		<path d="M1246.348,274.05l5.573,3.893c-29.549,41.809-59.381,83.434-88.689,125.412c-1.539-1.116-3.082-2.211-4.636-3.289
			C1167.175,388.437,1215.153,318.885,1246.348,274.05z"/>
		<path d="M1156.272,229.55l5.973,3.014c-54.107,105.561-59.108,115.803-63.027,123.003c-1.568-0.815-3.144-1.635-4.704-2.446
			C1115.097,311.938,1135.685,270.744,1156.272,229.55z"/>
		<path d="M1231.286,276.064c1.851,1.334,3.757,2.607,5.608,3.958c-12.623,18.137-68.636,99.983-75.162,109.671
			c-1.458-1.014-2.962-1.977-4.442-2.959C1164.56,375.906,1226.01,284.517,1231.286,276.064z"/>
		<path d="M1308.015,339.188c1.602,1.457,3.212,2.922,4.823,4.387c-28.886,31.423-57.78,62.854-86.666,94.276
			c-0.004-0.004-3.815-3.468-4.018-3.653C1250.771,402.531,1279.389,370.863,1308.015,339.188z"/>
		<path d="M1341.071,383.44c1.52,1.537,2.988,3.155,4.441,4.77c-27.122,25.16-54.237,50.313-81.359,75.473
			c-1.212-1.374-2.419-2.74-3.698-4.039C1287.325,434.246,1314.202,408.839,1341.071,383.44z"/>
		<path d="M1317.552,360.943c1.575,1.46,3.058,2.999,4.589,4.52l-76.408,78.059c-1.266-1.37-2.488-2.759-3.763-4.094
			C1267.3,413.405,1292.327,387.081,1317.552,360.943z"/>
		<path d="M1406.562,469.531c1.19,1.751,2.393,3.52,3.596,5.29c-29.035,19.373-57.928,38.975-87.006,58.286
			c-0.982-1.502-1.964-3.003-2.94-4.496C1348.992,508.919,1377.782,489.222,1406.562,469.531z"/>
		<path d="M1108.593,228.858c1.928,0.802,3.829,1.695,5.748,2.546c-12.998,30.473-26.341,60.783-39.375,91.24
			c-1.683-0.691-3.336-1.428-5.031-2.065C1072.629,313.786,1102.172,243.909,1108.593,228.858z"/>
		<path d="M1155.379,255.154c1.872,1.047,3.763,2.105,5.645,3.157c-14.277,26.885-28.565,53.79-42.847,80.685
			c-1.686-0.773-3.34-1.604-4.995-2.411C1127.322,309.48,1141.656,282.467,1155.379,255.154z"/>
		<path d="M1183.714,270.54l5.531,3.22c-15.714,26.413-31.433,52.835-47.147,79.248c-1.589-0.987-3.178-1.973-4.758-2.955
			C1152.924,323.629,1168.283,297.057,1183.714,270.54z"/>
		<path d="M1348.216,406.131l4.14,4.866c-6.059,5.272-63.306,55.016-68.325,59.659c-1.187-1.49-2.44-2.923-3.683-4.364
			C1302.988,446.253,1325.521,426.092,1348.216,406.131z"/>
		<path d="M1209.789,289.391c1.726,1.224,3.441,2.442,5.135,3.711l-47.913,72.347c-1.577-0.985-3.132-1.968-4.762-2.833
			C1178.158,338.254,1193.846,313.731,1209.789,289.391z"/>
		<path d="M1391.863,466.702c2.346,3.102,1.541,2.013,3.767,5.107l-69.109,47.94c-1.84-2.81-1.167-1.816-3.116-4.612
			C1346.221,498.994,1369.046,482.845,1391.863,466.702z"/>
		<path d="M1085.383,229.232c2.004,0.653,4.012,1.298,6.004,1.988c-1.798,4.49-28.03,70.569-30.138,76.129
			c-1.74-0.65-3.49-1.275-5.244-1.889C1065.843,280.064,1075.498,254.599,1085.383,229.232z"/>
		<path d="M1347.934,420.064c2.288,2.479,1.727,1.854,4.357,4.916c-18.347,15.567-36.827,30.99-55.132,46.624
			c-1.204-1.423-2.421-2.834-3.671-4.203C1305.151,457.323,1338.599,428.519,1347.934,420.064z"/>
		<path d="M1112.24,247.057c1.919,0.844,3.849,1.692,5.789,2.545c-9.431,20.917-19.019,41.764-28.355,62.722
			c-1.765-0.679-3.519-1.354-5.26-2.06C1093.515,289.119,1102.988,268.137,1112.24,247.057z"/>
		<path d="M1157.956,272.899c1.899,0.969,3.799,1.936,5.667,2.986c-10.24,18.34-20.193,36.841-30.581,55.098
			c-1.604-0.977-3.24-1.897-4.878-2.814C1138.042,309.718,1148.137,291.382,1157.956,272.899z"/>
		<path d="M1371.165,455.645c1.262,1.689,2.515,3.386,3.756,5.104c-16.943,12.562-33.855,25.184-50.854,37.672
			c-1.178-1.488-2.35-2.968-3.523-4.449C1331.072,486.001,1370.335,456.273,1371.165,455.645z"/>
		<path d="M1393.389,491.219c1.128,1.746,2.262,3.502,3.396,5.257c-11.243,7.159-13.736,8.85-49.154,31.798
			c-1.058-1.633-2.116-3.265-3.195-4.872C1360.918,512.942,1377.01,501.838,1393.389,491.219z"/>
		<path d="M1404.639,508.752c1.05,1.769,2.103,3.524,3.064,5.358l-49.912,30.198c-1.038-1.563-2.08-3.135-3.118-4.698
			L1404.639,508.752z"/>
		<path d="M1118.771,258.072c1.846,0.894,3.712,1.798,5.569,2.696c-7.689,16.316-15.373,32.623-23.063,48.939
			c-1.739-0.792-3.469-1.581-5.198-2.369L1118.771,258.072z"/>
		<path d="M1183.075,292.282c1.775,1.027,3.595,2.004,5.335,3.089c-9.351,15.452-18.975,30.732-28.389,46.157
			c-1.587-1.029-3.242-1.947-4.867-2.894C1164.354,323.119,1173.761,307.728,1183.075,292.282z"/>
		<path d="M1347.303,434.733l3.936,4.627c-13.392,11.088-26.936,21.994-40.349,33.04c-1.211-1.47-2.332-3.002-3.372-4.59
			L1347.303,434.733z"/>
		<path d="M1360.52,450.5c1.621,2.059,2.346,2.927,3.748,5.019c-14.002,10.597-27.774,21.499-41.726,32.181
			c-2.105-2.692-1.374-1.777-3.482-4.349C1332.755,472.254,1346.847,461.623,1360.52,450.5z"/>
		<path d="M1373.242,467.201c1.193,1.705,2.387,3.409,3.587,5.123c-14.429,10.068-28.591,20.528-42.966,30.672
			c-1.157-1.513-2.308-3.017-3.459-4.522L1373.242,467.201z"/>
		<path d="M1067.42,247.154l5.747,2.222c-4.185,10.961-8.22,21.967-12.49,32.894c-1.824-0.695-3.638-1.386-5.462-2.081
			C1059.22,269.149,1063.228,258.111,1067.42,247.154z"/>
		<path d="M1086.671,254.55c1.829,0.781,3.658,1.561,5.498,2.346c-4.374,10.805-8.974,21.517-13.336,32.338
			c-1.859-0.586-3.668-1.292-5.483-1.954C1073.756,286.274,1083.534,261.829,1086.671,254.55z"/>
		<path d="M1124.054,271.154c1.866,0.807,3.703,1.677,5.537,2.552c-5.211,10.584-10.332,21.213-15.646,31.746
			c-1.668-0.914-3.334-1.808-5.044-2.637L1124.054,271.154z"/>
		<path d="M1160.436,289.968c1.799,1.014,3.582,2.056,5.364,3.098c-5.853,10.118-11.671,20.269-17.429,30.454
			c-1.723-0.876-3.437-1.746-5.161-2.622C1148.872,310.546,1154.833,300.352,1160.436,289.968z"/>
		<path d="M1347.297,448c1.288,1.612,2.57,3.216,3.865,4.837c-9.187,7.419-18.565,14.597-27.707,22.055
			c-1.132-1.752-1.966-2.822-3.455-4.88C1329.148,462.737,1338.2,455.34,1347.297,448z"/>
		<path d="M1389.408,506.267c1.032,1.7,2.066,3.398,3.052,5.139c-9.865,6.314-19.848,12.435-29.742,18.701
			c-1.045-1.674-2.141-3.303-3.244-4.914C1369.482,518.924,1379.232,512.257,1389.408,506.267z"/>
		<path d="M1399.976,523.654c1.047,1.791,2.1,3.591,3.153,5.392c-10.159,5.869-20.315,11.765-30.415,17.734
			c-1.002-1.699-1.999-3.39-2.962-5.088L1399.976,523.654z"/>
	</g>
	<g>
		<path d="M1652.399,701.405c0.593,2.663,1.182,5.312,1.778,7.989c-19.034,2.883-352.144,62.955-381.113,68.261
			c-0.206-1.387-0.412-2.766-0.617-4.145C1277.263,772.456,1608.409,709.74,1652.399,701.405z"/>
		<path d="M1623.282,719.538c0.411,2.493,0.821,4.986,1.234,7.493c-124.168,20.309-309.087,50.655-318.555,52.019
			c-0.238-1.446-0.474-2.877-0.709-4.308C1305.252,774.742,1544.121,733.279,1623.282,719.538z"/>
		<path d="M1604.672,697.842c0.6,2.382,1.079,4.79,1.613,7.2c-7.02,1.561-278.698,54.842-288.635,56.592
			c-0.745-1.345-0.891-2.863-1.327-4.292C1332.247,754.057,1562.067,706.633,1604.672,697.842z"/>
		<path d="M1602.384,735.641c0.455,2.384,0.828,4.769,1.2,7.18c-45.285,6.665-266.579,39.232-273.42,40.239
			c-0.278-1.532-0.559-3.054-0.911-4.564C1340.453,776.738,1601.313,735.809,1602.384,735.641z"/>
		<path d="M1579.607,678.575c0.557,2.324,1.113,4.648,1.673,6.984c-91.724,21.063-247.382,56.808-247.382,56.808
			c-0.356-1.595-0.711-3.182-1.065-4.77C1526.657,691.269,1522.055,692.104,1579.607,678.575z"/>
		<path d="M1588.632,785.808c0.137,2.422,0.275,4.858,0.413,7.294c-211.158,16.918-230.454,19.186-235.542,19.113
			c-0.13-1.537-0.28-3.072-0.353-4.605C1356.156,807.065,1343.964,808.227,1588.632,785.808z"/>
		<path d="M1549.648,673.786c0.615,2.23,1.159,4.479,1.737,6.731c-64.032,15.801-128.074,31.604-192.106,47.405
			c-0.559-1.631-0.967-3.308-1.468-4.952C1421.801,706.766,1485.743,690.347,1549.648,673.786z"/>
		<path d="M1566.716,764.63c0.324,2.316,0.625,4.634,0.915,6.967l-196.55,22.424c-0.167-1.682-0.334-3.364-0.5-5.037
			C1435.956,780.866,1501.342,772.748,1566.716,764.63z"/>
		<path d="M1550.674,697.278c0.437,2.27,0.871,4.528,1.308,6.799c-61.546,13.022-123.069,26.153-184.563,39.36l-1.167-5.035
			C1427.727,724.705,1489.225,711.105,1550.674,697.278z"/>
		<path d="M1527.723,632.444l2.138,6.656c-57.36,17.637-151.715,47.96-170.729,53.455c-0.476-1.617-0.937-3.23-1.316-4.871
			C1414.459,669.269,1471.091,650.856,1527.723,632.444z"/>
		<path d="M1559.37,799.96c0.169,2.248,0.339,4.496,0.509,6.756c-58.435,3.895-116.869,7.79-175.293,11.684
			c-0.27-1.649-0.44-3.302-0.621-4.955C1385.857,813.006,1555.566,800.247,1559.37,799.96z"/>
		<path d="M1554.675,822.919c0.134,2.28,0.268,4.56,0.402,6.851c-176.44,5.901-152.813,5.407-163.974,5.315
			c-0.041-1.662-0.082-3.315-0.122-4.958C1400.198,829.72,1510.472,824.865,1554.675,822.919z"/>
		<path d="M1525.302,668.523l1.773,6.563c-49.494,13.097-99.085,25.871-148.503,39.252c-0.463-1.844-0.943-3.674-1.442-5.498
			C1391.173,705.428,1472.604,682.884,1525.302,668.523z"/>
		<path d="M1484.834,576.625l2.628,6.146c-109.274,46.149-119.687,50.787-127.315,53.787c-0.675-1.635-1.354-3.28-2.026-4.906
			C1400.353,613.313,1442.593,594.969,1484.834,576.625z"/>
		<path d="M1512.458,660.402c0.586,2.204,1.174,4.418,1.763,6.633c-21.321,5.807-116.804,32.622-128.027,35.863
			c-0.475-1.711-1.003-3.418-1.51-5.12C1395.549,694.621,1502.927,663.517,1512.458,660.402z"/>
		<path d="M1530.773,758.091c0.289,2.148,0.58,4.307,0.871,6.466c-42.323,5.531-84.656,11.063-126.979,16.593
			c-0.001-0.006-0.688-5.105-0.724-5.377C1446.215,769.88,1488.489,763.986,1530.773,758.091z"/>
		<path d="M1527.661,813.286c0.133,2.159,0.327,4.338,0.369,6.513c-36.95,1.834-73.889,3.668-110.838,5.502
			c-0.016-1.831-0.167-3.646-0.269-5.463C1453.832,817.654,1490.752,815.47,1527.661,813.286z"/>
		<path d="M1524.101,780.909c0.434,3.927,0.297,2.545,0.633,6.415l-108.704,10.719c-0.139-3.322-0.082-2.17-0.272-5.547
			C1451.887,788.826,1487.979,784.733,1524.101,780.909z"/>
		<path d="M1522.469,921.388c-0.237,2.103-0.477,4.229-0.717,6.354c-34.69-3.861-69.421-7.455-104.103-11.391
			c0.236-1.779,0.473-3.559,0.708-5.328C1453.058,914.478,1487.769,917.933,1522.469,921.388z"/>
		<path d="M1448.746,545.498c0.946,1.859,1.906,3.724,2.795,5.625c-29.546,14.987-59.25,29.627-88.813,44.58
			c-0.813-1.629-1.678-3.221-2.559-4.805C1366.599,587.427,1434.151,552.898,1448.746,545.498z"/>
		<path d="M1467.706,595.664c0.759,2.004,1.527,4.03,2.29,6.045c-28.21,11.439-56.441,22.885-84.661,34.328
			c-0.794-1.677-1.526-3.379-2.274-5.063C1411.307,619.282,1439.644,607.784,1467.706,595.664z"/>
		<path d="M1479.536,625.64l2.169,6.019c-29.005,10.163-58.019,20.331-87.024,30.494c-0.584-1.778-1.167-3.555-1.748-5.324
			C1421.846,646.576,1450.682,636.064,1479.536,625.64z"/>
		<path d="M1518.585,835.274l0.016,6.393c-8.034,0.14-83.853,1.413-90.69,1.74c0.056-1.903,0.039-3.805,0.01-5.707
			C1458.147,836.914,1488.366,835.965,1518.585,835.274z"/>
		<path d="M1487.423,656.824c0.538,2.046,1.071,4.081,1.554,6.142l-83.176,24.727c-0.578-1.768-1.136-3.521-1.834-5.23
			C1431.806,673.992,1459.572,665.257,1487.423,656.824z"/>
		<path d="M1512.981,909.755c-0.131,2.104-0.263,4.219-0.395,6.334l-83.747-7.792c0.192-1.855,0.384-3.701,0.574-5.536
			C1457.266,905.093,1485.129,907.425,1512.981,909.755z"/>
		<path d="M1430.753,530.865l3.301,5.39c-4.264,2.282-66.848,36.017-72.036,38.918l-2.786-4.831
			C1383.097,557.221,1406.87,543.931,1430.753,530.865z"/>
		<path d="M1509.366,845.768c0.097,2.178,0.172,4.369,0.224,6.57c-24.06,0.117-48.131,0.037-72.203,0.232
			c-0.053-1.862-0.106-3.724-0.159-5.576C1450.953,846.807,1496.719,846.24,1509.366,845.768z"/>
		<path d="M1439.856,561.767c0.922,1.882,1.849,3.774,2.78,5.676c-20.668,9.964-41.412,19.772-62.035,29.828
			c-0.91-1.658-1.815-3.307-2.69-4.97C1398.476,581.952,1419.219,571.968,1439.856,561.767z"/>
		<path d="M1458.27,610.921c0.815,1.968,1.682,3.917,2.435,5.922c-19.626,7.483-39.137,15.276-58.823,22.601
			c-0.597-1.782-1.293-3.526-1.943-5.288C1419.359,626.356,1438.873,618.784,1458.27,610.921z"/>
		<path d="M1504.296,887.971c-0.138,2.105-0.287,4.209-0.459,6.322c-21.053-1.29-42.12-2.513-63.167-3.896
			c0.072-1.896,0.144-3.782,0.216-5.668C1454.073,885.403,1503.256,887.918,1504.296,887.971z"/>
		<path d="M1498.36,929.5c-0.237,2.065-0.476,4.141-0.714,6.216c-13.211-1.757-16.208-2.067-58.086-7.297
			c0.225-1.933,0.433-3.868,0.618-5.795C1459.53,925.227,1478.987,927.084,1498.36,929.5z"/>
		<path d="M1495.738,950.16c-0.291,2.036-0.668,4.046-1.134,6.065l-57.639-8.994c0.233-1.863,0.512-3.728,0.67-5.6L1495.738,950.16z
			"/>
		<path d="M1437.79,574.393c0.835,1.873,1.68,3.765,2.519,5.648c-16.376,7.561-32.742,15.118-49.118,22.679
			c-0.819-1.727-1.634-3.446-2.449-5.164L1437.79,574.393z"/>
		<path d="M1465.081,641.899c0.703,1.926,1.46,3.847,2.112,5.791c-17.089,5.846-34.276,11.384-51.396,17.169
			c-0.568-1.804-1.241-3.573-1.879-5.343C1430.931,653.525,1448.024,647.764,1465.081,641.899z"/>
		<path d="M1499.473,856.599l0.002,6.076c-17.387-0.128-34.771-0.492-52.147-0.665c0.03-1.904,0.169-3.797,0.406-5.681
			L1499.473,856.599z"/>
		<path d="M1499.418,877.178c-0.074,2.08-0.138,4.172-0.332,6.257c-17.539-0.9-35.091-1.417-52.644-2.221
			c0.033-1.863,0.066-3.716,0.099-5.569C1464.167,875.963,1481.792,876.894,1499.418,877.178z"/>
		<path d="M1498.414,898.152c-0.145,2.076-0.288,4.152-0.519,6.232c-17.521-1.581-35.094-2.691-52.623-4.18
			c0.13-1.9,0.18-3.794,0.228-5.689L1498.414,898.152z"/>
		<path d="M1405.449,533.051c1.885,3.279,1.198,2.053,3.011,5.372c-10.254,5.701-20.423,11.533-30.721,17.153
			c-1.737-3.14-1.123-2.056-2.887-5.083C1385.02,544.618,1395.189,538.745,1405.449,533.051z"/>
		<path d="M1415.475,551.067c0.892,1.777,1.784,3.554,2.681,5.341c-10.297,5.463-20.707,10.71-31.006,16.194
			c-1.04-1.648-1.965-3.356-2.922-5.034C1385.184,567.057,1408.392,554.624,1415.475,551.067z"/>
		<path d="M1433.407,587.818c0.886,1.829,1.795,3.647,2.621,5.503c-10.793,4.762-21.546,9.618-32.385,14.276
			c-0.675-1.779-1.438-3.509-2.19-5.255L1433.407,587.818z"/>
		<path d="M1449.215,625.593c0.726,1.932,1.422,3.876,2.117,5.82c-10.984,4-21.961,8.047-32.915,12.158
			c-0.757-1.779-1.51-3.548-2.268-5.327C1427.136,633.944,1438.252,629.956,1449.215,625.593z"/>
		<path d="M1490.928,866.754c0.012,2.065-0.088,4.117-0.151,6.191c-11.807-0.233-23.603-0.772-35.402-0.946
			c0.257-2.069,0.379-3.423,0.493-5.957C1467.554,866.359,1479.242,866.521,1490.928,866.754z"/>
		<path d="M1485.647,938.453c-0.328,1.962-0.655,3.923-0.985,5.895c-11.612-1.515-23.194-3.253-34.799-4.824
			c0.233-1.96,0.464-3.909,0.695-5.849C1462.251,935.318,1474.009,936.491,1485.647,938.453z"/>
		<path d="M1482.523,958.554c-0.331,2.047-0.664,4.106-0.997,6.164c-11.554-2.041-23.123-4.058-34.695-5.985
			c0.307-1.95,0.612-3.889,0.948-5.813L1482.523,958.554z"/>
	</g>
</g>
</svg>
